<?xml version="1.0" encoding="utf-8"?>
<!-- Generator: Adobe Illustrator 21.0.0, SVG Export Plug-In . SVG Version: 6.00 Build 0)  -->
<svg version="1.1" id="Layer_1" xmlns="http://www.w3.org/2000/svg" xmlns:xlink="http://www.w3.org/1999/xlink" x="0px" y="0px"
	 width="1000px" height="432px" viewBox="0 0 1000 432" style="enable-background:new 0 0 1000 432;" xml:space="preserve">
<style type="text/css">
	.st0{fill:#364469;}
	.st1{fill:#F1F2FF;}
	.st2{fill:#D7DDFB;}
	.st3{fill:#CCD5E2;}
	.st4{fill:#FFFFFF;}
	.st5{fill:#8592C8;}
	.st6{fill:#9DF9E1;}
	.st7{fill:#FCD56B;}
	.st8{fill:#A9B1D4;}
	.st9{fill:#FC86B4;}
	.st10{fill:#464646;}
	.st11{opacity:0.44;fill:#C8C8C8;enable-background:new    ;}
	.st12{fill:#EBB28B;}
	.st13{fill:#F2F7FF;}
	.st14{fill:#F0BC99;}
	.st15{fill:#2F282F;}
	.st16{fill:#F0AF74;}
	.st17{fill:#4F5977;}
	.st18{fill:#50E3C2;}
	.st19{opacity:0.12;fill:#B8B8B8;enable-background:new    ;}
	.st20{fill:#D66DF7;}
	.st21{fill:#B2BAD9;}
	.st22{opacity:0.1;}
	.st23{fill:#3A4241;}
	.st24{fill:#ABABAB;}
	.st25{fill:#9B9B9B;}
	.st26{fill:#C6C6C6;}
	.st27{fill:#222222;}
	.st28{opacity:0.3;}
	.st29{fill:#898989;}
	.st30{fill:#B140DB;}
	.st31{fill:#4D4D4F;}
	.st32{fill:#232323;}
	.st33{fill:#607778;}
	.st34{fill:#666666;}
	.st35{fill:#EFC354;}
	.st36{fill:#DF9968;}
	.st37{fill:#BFBFBF;}
	.st38{fill:#969696;}
	.st39{fill:#F473A7;}
	.st40{fill:#EF599D;}
	.st41{fill:#F2B07D;}
	.st42{fill:#DE9361;}
	.st43{fill:#6D6D6D;}
	.st44{fill:#A7714C;}
	.st45{fill:#714329;}
	.st46{fill:#E47676;}
	.st47{fill:#F88989;}
</style>
<g>
	<path class="st0" d="M1705.2,152.4l-8.4,19.6l2.2,0.9l8.4-19.6c0.1-0.2,0-0.5-0.2-0.6c-0.5-0.2-0.9-0.4-1.4-0.6
		C1705.5,152.1,1705.3,152.2,1705.2,152.4z"/>
	<path class="st0" d="M1705.2,157.2l-1.4-0.6l2.4-5.5c0.2-0.4,0.6-0.6,1-0.4l0,0c0.4,0.2,0.6,0.6,0.4,1L1705.2,157.2z"/>
</g>
<path class="st1" d="M699.9,69l103.3,0.5c13.7,0,24.6,11.7,23.7,25.5l-16.8,237.8c-0.9,12.3-11.1,21.8-23.4,21.8h-105
	c-13.7,0-24.5-11.5-23.4-25.2l17.8-238.3C677,78.7,687.4,69,699.9,69z"/>
<path class="st2" d="M699.9,69l103.3,0.5c13.7,0,24.6,11.7,23.7,25.5l-16.8,237.8c-0.9,12.3-11.1,21.8-23.4,21.8h-105
	c-13.7,0-24.5-11.5-23.4-25.2l17.8-238.3C677,78.7,687.4,69,699.9,69z"/>
<path class="st3" d="M688.4,69l103.3,0.5c13.7,0,24.6,11.7,23.7,25.5l-16.8,237.7c-0.9,12.3-11.1,21.8-23.4,21.8h-105
	c-13.7,0-24.5-11.5-23.4-25.2l17.8-238.2C665.5,78.7,675.7,69,688.4,69z"/>
<polygon class="st4" points="680.6,90.8 798.6,90.8 784.3,317.6 665.9,318.6 "/>
<path class="st5" d="M750.4,82.4h-19.8c-1.1,0-2-0.9-2-2l0,0c0-1.1,0.9-2,2-2h19.8c1.1,0,2,0.9,2,2l0,0
	C752.4,81.5,751.4,82.4,750.4,82.4z"/>
<path class="st6" d="M784.2,149.3h-95.8c-2.5,0-4.5-2-4.4-4.5l1.2-26c0.2-2.3,2-4.2,4.4-4.2h95.8c2.5,0,4.5,2,4.4,4.5l-1.2,26
	C788.4,147.5,786.5,149.3,784.2,149.3z"/>
<path class="st4" d="M748.8,123.4h-54.5c-0.3,0-0.6-0.3-0.6-0.6s0.3-0.6,0.6-0.6h54.5c0.3,0,0.6,0.3,0.6,0.6
	S749.1,123.4,748.8,123.4z"/>
<path class="st4" d="M748.3,132.1h-54.5c-0.3,0-0.6-0.3-0.6-0.6s0.3-0.6,0.6-0.6h54.5c0.3,0,0.6,0.3,0.6,0.6
	S748.6,132.1,748.3,132.1z"/>
<path class="st4" d="M720.3,140.8h-27c-0.3,0-0.6-0.3-0.6-0.6s0.3-0.6,0.6-0.6h27c0.3,0,0.6,0.3,0.6,0.6S720.6,140.8,720.3,140.8z"
	/>
<path class="st7" d="M780.7,198.5h-95.8c-2.5,0-4.5-2-4.4-4.5l1.2-26c0.2-2.3,2-4.2,4.4-4.2h95.8c2.5,0,4.5,2,4.4,4.5l-1.2,26
	C784.9,196.6,783.1,198.5,780.7,198.5z"/>
<path class="st4" d="M745.4,172.6h-54.5c-0.3,0-0.6-0.3-0.6-0.6s0.3-0.6,0.6-0.6h54.5c0.3,0,0.6,0.3,0.6,0.6
	C746,172.3,745.7,172.6,745.4,172.6z"/>
<path class="st4" d="M744.9,181.3h-54.5c-0.3,0-0.6-0.3-0.6-0.6s0.3-0.6,0.6-0.6h54.5c0.3,0,0.6,0.3,0.6,0.6
	C745.5,181,745.2,181.3,744.9,181.3z"/>
<path class="st4" d="M716.9,189.9H690c-0.3,0-0.6-0.3-0.6-0.6s0.3-0.6,0.6-0.6h26.9c0.3,0,0.6,0.3,0.6,0.6
	C717.5,189.7,717.3,189.9,716.9,189.9z"/>
<polygon class="st8" points="680.6,90.8 665.9,318.6 663.4,318.6 678.1,90.8 "/>
<path class="st9" d="M642.4,67.3c2.3-2.8,3.7-6.4,3.7-10.3c0-8.9-7.2-16-16-16h-34.9c-8.9,0-16,7.2-16,16s7.2,16,16,16h34.7
	c2.6,0,5-0.6,7.2-1.7l8.1,4.4L642.4,67.3z"/>
<g>
	<circle class="st4" cx="624.7" cy="57" r="3.4"/>
	<circle class="st4" cx="612.7" cy="57" r="3.4"/>
	<circle class="st4" cx="600.7" cy="57" r="3.4"/>
</g>
<polygon class="st10" points="838.7,256.4 834.9,270.9 878.7,273.4 877.3,255.2 "/>
<polygon class="st10" points="856.6,265.9 843.8,308.9 844.1,374 828.5,374.3 825.6,308 836,267 "/>
<polygon class="st11" points="854.9,272 844.7,271.1 852.1,281.2 "/>
<polygon class="st10" points="878.7,270.4 881.7,310.8 894,377.4 878.5,380.6 863.6,312.5 858.5,266.1 "/>
<g>
	<path class="st7" d="M833.1,374h8.4l0.2,12.1l-24.1,0.2l0,0c0.2-1.9,1.4-3.4,3.3-3.9l12-3L833.1,374z"/>
	
		<rect x="817.6" y="386.2" transform="matrix(1 -6.579728e-03 6.579728e-03 1 -2.5294 5.4674)" class="st7" width="24.1" height="1.9"/>
	
		<ellipse transform="matrix(1 -6.588765e-03 6.588765e-03 1 -2.4803 5.5238)" class="st7" cx="837.1" cy="379.2" rx="1.9" ry="1.9"/>
</g>
<g>
	<path class="st7" d="M882.9,378.8l8.4-1.1l1.7,12l-23.8,3.1l0,0c0-1.9,1.1-3.6,2.8-4.2l11.5-4.4L882.9,378.8z"/>
	
		<rect x="869.2" y="391.3" transform="matrix(0.9913 -0.1314 0.1314 0.9913 -43.9012 119.1979)" class="st7" width="24.1" height="1.9"/>
	
		<ellipse transform="matrix(0.9913 -0.1314 0.1314 0.9913 -42.6697 119.9533)" class="st7" cx="887.6" cy="383.3" rx="1.9" ry="1.9"/>
</g>
<path class="st6" d="M820.9,234.1c-0.2,0-0.3,0-0.5,0l-39.6-5.9l1.9-12.9l35.4,5.3c7-10.7,17.8-23.2,17.8-23.2c-0.2,0.2,0.5,0.6,0,0
	l12.5,1.2c0.6,3.1-2.2,3.1-21.7,32.6C825.6,233.2,823.3,234.3,820.9,234.1z"/>
<path class="st6" d="M858.1,194l1.2,0.2c5.6,0.9,10.1,5.1,11.5,10.7l9,51.6c-19.3,10.4-43.6,0.2-43.6,0.2l-4.7-48.1
	c-0.6-5.3,2.2-10.4,6.9-12.8l0,0L858.1,194z"/>
<polygon class="st12" points="853.8,198.6 842.9,197.7 844.7,173.1 855.5,174 "/>
<path class="st12" d="M840.2,195.5l16.5-1.4c0,0-0.2,9.7-10.1,9.5C837.6,203.5,840.2,195.5,840.2,195.5z"/>
<g>
	<ellipse transform="matrix(0.1669 -0.986 0.986 0.1669 427.9938 947.4686)" class="st4" cx="774.7" cy="220.5" rx="7" ry="7"/>
	<path class="st4" d="M785.4,225.9l-7.2-1.2c-1.9-0.3-3.1-2.2-2.8-4l0,0c0.3-1.9,2.2-3.1,4-2.8l7.2,1.2c1.9,0.3,3.1,2.2,2.8,4l0,0
		C789,224.9,787.3,226.2,785.4,225.9z"/>
</g>
<g>
	
		<ellipse transform="matrix(6.897108e-02 -0.9976 0.9976 6.897108e-02 501.7267 990.3763)" class="st9" cx="781.5" cy="226.4" rx="20.2" ry="20.2"/>
	<path class="st13" d="M777.9,234.1c-0.5,0-0.8-0.2-1.1-0.5l-6.9-6.7c-0.8-0.8-0.8-1.9,0-2.5c0.8-0.8,1.9-0.8,2.5,0l5.6,5.6
		l12.9-10.4c0.8-0.6,1.9-0.5,2.5,0.3s0.5,1.9-0.3,2.5l-14.2,11.4C778.9,234.1,778.4,234.1,777.9,234.1z"/>
</g>
<path class="st14" d="M841,189.6L841,189.6c-7.3-0.5-12.9-6.9-12.5-14.2l1.1-16.5l26.6,1.9l-1.1,16.5
	C854.7,184.6,848.3,190.1,841,189.6z"/>
<path class="st15" d="M855.3,172.8l-3.7-0.2c-1.1,0-1.7-1.1-1.6-2c0.6-2.6,1.6-7.3-0.2-8.1c-2.5-0.9-16.4,1.7-20.7-2
	c-6.2-5.3-1.1-13.1,4.8-12.9c5.9,0,4.7,6.7,11.5,7s17.4-1.7,11.8,16.2L855.3,172.8z"/>
<ellipse transform="matrix(6.898881e-02 -0.9976 0.9976 6.898881e-02 623.5933 1015.4047)" class="st14" cx="855.8" cy="173.6" rx="4.2" ry="4.2"/>
<g>
	
		<ellipse transform="matrix(6.897970e-02 -0.9976 0.9976 6.897970e-02 507.7707 1021.0629)" class="st16" cx="800.9" cy="238.5" rx="7" ry="7"/>
	<path class="st16" d="M812.2,242.9l-7.3-0.5c-1.9-0.2-3.4-1.9-3.3-3.7l0,0c0.2-1.9,1.9-3.4,3.7-3.3l7.3,0.5
		c1.9,0.2,3.4,1.9,3.3,3.7l0,0C815.8,241.5,814.2,243,812.2,242.9z"/>
</g>
<path class="st6" d="M808.3,245.5v-13.1h36l12.3-29.4c1.6-3.3,5.3-4.7,8.7-3.3l0,0c3.3,1.6,4.7,5.3,3.3,8.7l-14.2,33.2
	c-1.1,2.3-3.4,3.9-5.9,3.9L808.3,245.5L808.3,245.5z"/>
<rect x="826.5" y="367.5" class="st17" width="19.5" height="6.9"/>
<rect x="876.1" y="372.8" transform="matrix(0.9813 -0.1924 0.1924 0.9813 -55.8376 177.4686)" class="st17" width="19.5" height="6.9"/>
<path class="st4" d="M831.2,177.8l11.5,0.6c0,0-0.6,4.4-6.9,3.7C830.9,181.5,831.2,177.8,831.2,177.8z"/>
<path class="st18" d="M835.4,245.5h11.7c3.3-0.2,6.1-2.2,7.5-5.1l12.9-29.3c-5,17.1-11.5,34.4-11.5,34.4c-0.8,2.2-3,3.7-5.3,3.6
	l-15-0.6L835.4,245.5z"/>
<path class="st19" d="M765,267.3L676.5,279c-1.7,0.2-3.1-0.9-3.4-2.6l-3.3-25.4c-0.2-1.7,0.9-3.1,2.6-3.4l88.5-11.7
	c1.7-0.2,3.1,0.9,3.4,2.6l3.4,25.4C767.8,265.4,766.6,267,765,267.3z"/>
<path class="st20" d="M758.8,256.9l-88.5,11.7c-1.7,0.2-3.1-0.9-3.4-2.6l-3.4-25.4c-0.2-1.7,0.9-3.1,2.6-3.4l88.5-11.7
	c1.7-0.2,3.1,0.9,3.4,2.6l3.4,25.4C761.6,255.2,760.5,256.7,758.8,256.9z"/>
<path class="st4" d="M672.6,244.6c-0.3,0-0.6-0.2-0.6-0.5s0.2-0.6,0.5-0.6l49.2-6.5c0.3,0,0.6,0.2,0.6,0.5s-0.2,0.6-0.5,0.6
	L672.6,244.6L672.6,244.6z"/>
<path class="st4" d="M673.6,252.4c-0.3,0-0.6-0.2-0.6-0.5s0.2-0.6,0.5-0.6l49.2-6.5c0.3,0,0.6,0.2,0.6,0.5s-0.2,0.6-0.5,0.6
	L673.6,252.4C673.7,252.4,673.6,252.4,673.6,252.4z"/>
<path class="st4" d="M674.7,260.3c-0.3,0-0.6-0.2-0.6-0.5s0.2-0.6,0.5-0.6l24.3-3.3c0.3,0,0.6,0.2,0.6,0.5s-0.2,0.6-0.5,0.6
	L674.7,260.3L674.7,260.3z"/>
<path class="st20" d="M639.1,366.2l-7.6-0.6l-1.1,12.6l22,1.7l0.2-1.7c0-1.7-1.1-3.3-2.8-3.7l-10.7-3.4L639.1,366.2z"/>
<path class="st20" d="M539.3,361.7l-0.8-7.6l-12.6,0.9l2.2,22l1.7-0.2c1.7-0.3,3-1.7,3.1-3.4l1.6-11.1L539.3,361.7z"/>
<path class="st9" d="M571.1,304.2l14,45l-48.8,3l1.4,11.7l59.5-2c5.3-0.2,9.3-4.2,8.3-10.3l-3.3-33.5l31.5-0.5l-5.5,49.7l13.6,0.5
	l13.2-55.9c1.6-6.9-3.4-13.4-10.4-13.6l-31.9-0.8L571.1,304.2z"/>
<polygon class="st12" points="591.2,251.7 603.2,254.2 608.3,228.8 596.5,226.4 "/>
<path class="st14" d="M600.7,242.1L600.7,242.1c6.7,1.4,13.4-3,14.8-9.7l3.1-15.1l-24.3-5.1l-3.1,15.1
	C589.6,234.1,594,240.7,600.7,242.1z"/>
<path class="st10" d="M609.7,223.9l-2.3,11.1c-0.9,4.5-5.1,7.3-9.3,6.4l-2.2-0.5c-7.3-1.6-12-9-10.3-16.8l2.2-10.1l22.9,4.8
	L609.7,223.9z"/>
<path class="st10" d="M608.8,222.1c0,0,5.8,1.6,9.3,1.6c4.7,0,7.6-5.3,4.7-9c-0.2-0.2-0.3-0.3-0.5-0.5c-3.6-3.9-9.8-2-9.8-1.6
	C612.7,213.1,608.8,222.1,608.8,222.1z"/>
<path class="st10" d="M616.2,215.8c0,0-7-10.3-19.2-7.3c0,0-4.7-0.3-9.5,5.6l20.4,9.7L616.2,215.8z"/>
<ellipse transform="matrix(0.205 -0.9788 0.9788 0.205 258.8949 777.7473)" class="st14" cx="608.2" cy="229.5" rx="3.6" ry="3.6"/>
<ellipse transform="matrix(0.205 -0.9788 0.9788 0.205 267.0528 737.9858)" class="st10" cx="587.8" cy="204.6" rx="11.8" ry="11.8"/>
<path class="st7" d="M612.8,297.1c-4.5-7.3-2.3-24.1-0.5-34.3c0.9-5-1.4-10-5.6-12.6l0,0l-13.9-4c-3.4-1.2-7.9,2.8-10.4,5.5
	c-22,24.1-13.6,54.8-13.6,54.8c7.5,1.9,16.7,1.7,21.7,1.1l0,0h0.2c0.2,0,0.2,0,0.3,0C604.4,306.1,612.8,297.1,612.8,297.1z"/>
<g>
	<g>
		
			<ellipse transform="matrix(0.8102 -0.5862 0.5862 0.8102 -20.959 441.4892)" class="st7" cx="671.2" cy="253.1" rx="7.5" ry="7.5"/>
		<path class="st7" d="M663.4,263.4l6.4-4.5c1.7-1.2,2-3.6,0.8-5.1l0,0c-1.2-1.7-3.6-2-5.1-0.8l-6.4,4.5c-1.7,1.2-2,3.6-0.8,5.1l0,0
			C659.4,264.4,661.7,264.7,663.4,263.4z"/>
	</g>
	<path class="st7" d="M668.6,263.6l-7.5-11.8l-32.7,20.4l-20.6-20.9c-3.3-2.2-7.6-1.2-9.7,2l0,0c-2.2,3.3-1.2,7.6,2,9.7l24.3,23.4
		c2.3,1.6,5.3,1.6,7.6,0.2L668.6,263.6z"/>
</g>
<polygon class="st11" points="602.1,318.1 615.3,310.6 614.5,314 633.5,317.6 "/>
<path class="st4" d="M892.6,131.2l-1.1-3.1l-1.1,3.1c-0.9,2.6-3.1,4.8-6.1,6.2l0,0l0,0c3,1.2,5.1,3.6,6.1,6.2l1.1,3.1l1.1-3.1
	c0.9-2.6,3.1-4.8,6.1-6.2l0,0l0,0C895.7,136,893.5,133.8,892.6,131.2z"/>
<path class="st4" d="M565.6,221.8l-0.8-2l-0.8,2c-0.6,1.7-2,3.3-4,4l0,0l0,0c2,0.9,3.4,2.3,4,4l0.8,2l0.8-2c0.6-1.7,2-3.3,4-4l0,0
	l0,0C567.7,224.9,566.3,223.5,565.6,221.8z"/>
<polygon class="st21" points="680.6,384.4 683.2,389.6 713.9,390.4 720.1,373.4 717.5,368.4 "/>
<path class="st21" d="M687.4,391.6l26.6,1.1c2.3,0.2,4.4-0.9,4.5-2.3l1.7-15.9c0.2-1.6-1.7-2.8-4.4-3l-26.6-1.1
	c-2.3-0.2-4.4,0.9-4.5,2.3l-1.7,15.9C682.9,390.2,684.9,391.6,687.4,391.6z"/>
<path class="st3" d="M684.8,386.6l26.6,1.1c2.3,0.2,4.4-0.9,4.5-2.3l1.7-15.9c0.2-1.6-1.7-2.8-4.4-3l-26.6-1.1
	c-2.3-0.2-4.4,0.9-4.5,2.3l-1.7,15.9C680.4,385.2,682.3,386.6,684.8,386.6z"/>
<path class="st4" d="M744.4,343.3h-39c-4.5,0-8.2-3.7-8.2-8.2l0,0c0-4.5,3.7-8.2,8.2-8.2h39c4.5,0,8.2,3.7,8.2,8.2l0,0
	C752.6,339.6,748.9,343.3,744.4,343.3z"/>
<g>
	<ellipse class="st22" cx="303.5" cy="370.5" rx="144.4" ry="8.6"/>
</g>
<g>
	<path class="st23" d="M407.1,370.6c-17.6,0-31.9-14.3-31.9-31.9s14.3-31.9,31.9-31.9s31.9,14.3,31.9,31.9S424.7,370.6,407.1,370.6z
		 M407.1,320.3c-10.1,0-18.4,8.3-18.4,18.4c0,10.1,8.3,18.4,18.4,18.4c10.1,0,18.4-8.3,18.4-18.4
		C425.5,328.6,417.2,320.3,407.1,320.3z"/>
	<circle class="st24" cx="402.4" cy="338.7" r="25.2"/>
	<g>
		<circle class="st25" cx="402.6" cy="339.4" r="7.2"/>
		<path class="st26" d="M402.6,349.6c-5.6,0-10.2-4.6-10.2-10.2c0-5.6,4.6-10.2,10.2-10.2c5.6,0,10.2,4.6,10.2,10.2
			C412.8,345,408.2,349.6,402.6,349.6z M402.6,335.3c-2.3,0-4.1,1.8-4.1,4.1c0,2.3,1.8,4.1,4.1,4.1c2.3,0,4.1-1.8,4.1-4.1
			C406.7,337.1,404.8,335.3,402.6,335.3z"/>
	</g>
	<path class="st27" d="M402.4,370.6c-17.6,0-31.9-14.3-31.9-31.9s14.3-31.9,31.9-31.9c17.6,0,31.9,14.3,31.9,31.9
		S420,370.6,402.4,370.6z M402.4,320.3c-10.1,0-18.4,8.3-18.4,18.4c0,10.1,8.3,18.4,18.4,18.4c10.1,0,18.4-8.3,18.4-18.4
		C420.8,328.6,412.6,320.3,402.4,320.3z"/>
	<g class="st28">
		<path d="M438.6,339.8C438.6,339.8,438.6,339.8,438.6,339.8c0-19-15.2-34.4-33.9-34.4c-18.7,0-33.9,15.4-33.9,34.4c0,0,0,0,0,0
			L438.6,339.8z"/>
	</g>
</g>
<g>
	<path class="st29" d="M407.8,290.4c0,0,26.7,2.3,30.6,6.7l1.9,15.3L407.8,290.4z"/>
</g>
<g>
	<path class="st20" d="M407,289.7c-22.8,0-41.3,18.5-41.3,41.3h82.7C448.4,308.2,429.9,289.7,407,289.7z"/>
</g>
<g>
	<path class="st20" d="M415.2,290.5c-2.6-0.5-5.4-0.8-8.2-0.8c-22.8,0-41.3,18.5-41.3,41.3H382C382,311,396.3,294.3,415.2,290.5z"/>
</g>
<path class="st20" d="M185.5,314.3c0,0,16.6-46.3,51.6-46.9h70c0,0-23.7,8.3-23.7,30.3c0,21.9,19,21.9,30.3,21.9c11.3,0,27,0,27,0
	s36.4,3.5,27.1-52.2l-12.4-43.9l11.5,5.2l29.9,56.8l-1.3,4.7c-17,5-29.4,20.6-33.1,38.2c-9.1,3.9-33.6,4.3-56.3,4.3H180.7
	C180.7,332.6,182.1,321.5,185.5,314.3z"/>
<g>
	<path class="st23" d="M231,370.6c-17.6,0-31.9-14.3-31.9-31.9s14.3-31.9,31.9-31.9s31.9,14.3,31.9,31.9S248.6,370.6,231,370.6z"/>
	<circle class="st24" cx="226.4" cy="339.8" r="24.3"/>
	<path class="st27" d="M226.4,370.6c-17,0-30.8-13.8-30.8-30.8c0-17,13.8-30.8,30.8-30.8s30.8,13.8,30.8,30.8
		C257.2,356.8,243.4,370.6,226.4,370.6z M226.4,322c-9.8,0-17.8,8-17.8,17.8c0,9.8,8,17.8,17.8,17.8c9.8,0,17.8-8,17.8-17.8
		C244.2,330,236.2,322,226.4,322z"/>
</g>
<g>
	<path class="st27" d="M319.5,255.5c0,5.6-3.3,10.1-7.4,10.1h-52.1c-4.1,0-7.4-4.5-7.4-10.1l0,0c0-5.6,3.1-12,7.2-12l52.2,7.3
		C319.5,251.6,319.5,255.5,319.5,255.5L319.5,255.5z"/>
</g>
<g>
	<path d="M305.6,258.9c-1.2,0-51.5-0.4-51.5-0.4c-0.4,0-0.7,0-1.1-0.1c0.9,4.2,3.7,7.2,7.1,7.2h52.1c4.1,0,7.4-4.5,7.4-10
		C315.3,258.3,310.8,258.9,305.6,258.9z"/>
</g>
<g>
	<circle class="st25" cx="226.4" cy="339.8" r="6.9"/>
	<path class="st26" d="M226.4,349.7c-5.5,0-9.9-4.4-9.9-9.9s4.4-9.9,9.9-9.9c5.5,0,9.9,4.4,9.9,9.9S231.8,349.7,226.4,349.7z
		 M226.4,335.8c-2.2,0-4,1.8-4,4s1.8,4,4,4c2.2,0,4-1.8,4-4S228.5,335.8,226.4,335.8z"/>
</g>
<g class="st28">
	<path d="M263.3,339.8C263.3,339.8,263.3,339.8,263.3,339.8c0-19-15.2-34.4-33.9-34.4c-18.7,0-33.9,15.4-33.9,34.4c0,0,0,0,0,0
		L263.3,339.8z"/>
</g>
<g>
	<g>
		<path class="st30" d="M257,329.1c0,0,60.1,3.6,83.8-2.4c23.7-6,30.1-25.6,28-51.2c0,48.6-28.2,44.1-28.2,44.1s-15.7,0-27,0
			c-11.3,0-30.3,0-30.3-21.9c0-21.9,23.7-30.3,23.7-30.3h-70c-35,0.6-51.6,46.9-51.6,46.9c-3.4,7.2-4.7,18.3-4.7,18.3h77.4
			L257,329.1z"/>
	</g>
</g>
<g>
	<path class="st30" d="M216.7,273.3H202c0,0-15.4,6.7-10.2,14.2c0,0,6.3,4.7,8.3,2.4L216.7,273.3z"/>
</g>
<g>
	<path class="st29" d="M206.7,273.3c-1.2,2.1-9.7,13-14,14.9c1.8,1.2,5.9,3.6,7.4,1.7l16.6-16.6H206.7z"/>
</g>
<g>
	<path class="st20" d="M259.9,278c-43.2-9.2-70.1,34.1-70.1,56.3h80.3C286.2,314,286.3,283.7,259.9,278z"/>
</g>
<path class="st20" d="M260.6,284.6c-39.2-8.4-65.1,26.7-69.4,49.8h-1.4c0-22.2,26.9-65.5,70.1-56.3c14.6,3.1,21.1,13.7,21.3,26
	C279,294.6,272.5,287.1,260.6,284.6z"/>
<g>
	<g>
		<path class="st30" d="M307.1,265.6c-13,0-26.1,0-39.1,0c-10.5,0-21.2-0.7-31.7,0c-33.6,2.4-51.7,37.3-57.3,66.5
			c-0.4,2.2,3,3.2,3.4,0.9c5.2-27.2,22.3-62.7,54.5-63.9c23.3-0.9,46.8,0,70.1,0C309.4,269.1,309.4,265.6,307.1,265.6L307.1,265.6z"
			/>
	</g>
</g>
<path class="st31" d="M330.7,225.5c0.4,1.6,2.3,2.6,4.1,2.2l21.9-4.5c1.8-0.4,3-2,2.5-3.5l0,0c-0.4-1.6-2.3-2.6-4.1-2.2l-21.9,4.5
	C331.4,222.3,330.2,223.9,330.7,225.5L330.7,225.5z"/>
<path class="st32" d="M330.7,225.5c0.4,1.6,2.3,2.6,4.1,2.2l21.9-4.5c1.8-0.4,3-2,2.5-3.5l0,0L330.7,225.5L330.7,225.5z"/>
<g>
	<path class="st30" d="M378.4,217.8c1.1,6.3-3.2,12.4-9.5,13.5c-6.3,1.1-14.4-2.8-15.5-9.2c-1.1-6.3,5.2-12.7,11.5-13.8
		C371.3,207.2,377.3,211.4,378.4,217.8z"/>
</g>
<path class="st20" d="M365,212.6c-5.1,0.9-10.1,5.2-11.4,10.1c-0.1-0.2-0.1-0.4-0.2-0.7c-1.1-6.3,5.2-12.7,11.5-13.8
	c6.3-1.1,12.4,3.2,13.5,9.5c0.2,1.4,0.2,2.8,0,4.2C377.2,215.7,371.2,211.6,365,212.6z"/>
<path class="st33" d="M365,208.3c6.3-1.1,12.4,3.2,13.5,9.5c1.1,6.3-3.2,12.4-9.5,13.5L365,208.3z"/>
<path class="st31" d="M370.3,213.6c2,0,4-0.4,5.8-1.1c1.2,1.5,2,3.3,2.4,5.3c1.1,6.3-3.2,12.4-9.5,13.5l-3.1-17.9
	C367.3,213.5,368.7,213.6,370.3,213.6z"/>
<path class="st6" d="M370,208.5c4.2,1.2,7.6,4.7,8.4,9.3c0.8,4.6-1.2,9-4.8,11.6L370,208.5z"/>
<path class="st18" d="M371,214l-1-5.5c4.2,1.2,7.6,4.7,8.4,9.3c0.3,1.6,0.2,3.1-0.1,4.6C377.4,218.4,374.5,215.4,371,214z"/>
<path class="st9" d="M351.8,224.8c0.2,1.1,1.3,1.8,2.6,1.7l0,0c1.2-0.1,2-1.1,1.9-2.2l-1.1-6c-0.2-1.1-1.3-1.8-2.6-1.7l0,0
	c-1.2,0.1-2,1.1-1.9,2.2L351.8,224.8z"/>
<g>
	<path class="st4" d="M248.4,292c0,0.5,0.4,0.9,0.9,0.9h7.8c0.5,0,0.9-0.4,0.9-0.9l0,0c0-0.5-0.4-0.9-0.9-0.9h-7.8
		C248.7,291.1,248.4,291.5,248.4,292L248.4,292z"/>
	<path class="st4" d="M248.4,316.6c0,0.5,0.4,0.9,0.9,0.9h7.8c0.5,0,0.9-0.4,0.9-0.9l0,0c0-0.5-0.4-0.9-0.9-0.9h-7.8
		C248.7,315.7,248.4,316.1,248.4,316.6L248.4,316.6z"/>
	<path class="st4" d="M241.2,296c0,0.5,0.4,0.9,0.9,0.9h21c0.5,0,0.9-0.4,0.9-0.9l0,0c0-0.5-0.4-0.9-0.9-0.9h-21
		C241.6,295.2,241.2,295.6,241.2,296L241.2,296z"/>
	<path class="st4" d="M238.7,300.1c0,0.5,0.4,0.9,0.9,0.9h25.5c0.5,0,0.9-0.4,0.9-0.9l0,0c0-0.5-0.4-0.9-0.9-0.9h-25.5
		C239.1,299.3,238.7,299.6,238.7,300.1L238.7,300.1z"/>
	<path class="st4" d="M237.9,304.4c0,0.5,0.4,0.9,0.9,0.9h27.1c0.5,0,0.9-0.4,0.9-0.9l0,0c0-0.5-0.4-0.9-0.9-0.9h-27.1
		C238.3,303.5,237.9,303.9,237.9,304.4L237.9,304.4z"/>
	<path class="st4" d="M239.5,308.3c0,0.5,0.4,0.9,0.9,0.9h24.8c0.5,0,0.9-0.4,0.9-0.9l0,0c0-0.5-0.4-0.9-0.9-0.9h-24.8
		C239.9,307.4,239.5,307.8,239.5,308.3L239.5,308.3z"/>
	<path class="st4" d="M242,312.3c0,0.5,0.4,0.9,0.9,0.9H263c0.5,0,0.9-0.4,0.9-0.9l0,0c0-0.5-0.4-0.9-0.9-0.9h-20.1
		C242.4,311.5,242,311.9,242,312.3L242,312.3z"/>
</g>
<g>
	<polygon class="st34" points="183.3,262.7 214.7,273.3 228.2,265.3 	"/>
</g>
<g>
	<path class="st29" d="M249.5,262.7c0,1.8-1.5,3.2-3.4,3.2h-79.4c-1.9,0-3.4-1.4-3.4-3.2l0,0c0-1.8,1.5-3.2,3.4-3.2h79.4
		C248,259.5,249.5,260.9,249.5,262.7L249.5,262.7z"/>
</g>
<rect x="166.6" y="202.3" class="st7" width="80.2" height="57.2"/>
<polygon class="st35" points="239.2,252.1 239.2,202.3 246.9,202.3 246.9,259.5 166.6,259.5 166.6,252.1 "/>
<g>
	<path class="st4" d="M216.1,228.8h-2.9v-5.7h0.3c2.1,0,3.8-1.7,3.8-3.8h-1.7c0,1-0.6,1.8-1.5,2l-1.1-3.5h-3.1v-2.2h0.3
		c2.1,0,3.8-1.7,3.8-3.8h-1.7c0,1-0.6,1.8-1.5,2l-1.1-3.5h-11.5l-1.1,3.5c-0.9-0.3-1.5-1.1-1.5-2h-1.7c0,2.1,1.7,3.8,3.8,3.8h0.3
		v2.2h-3.1l-1.1,3.5c-0.9-0.3-1.5-1.1-1.5-2h-1.7c0,2.1,1.7,3.8,3.8,3.8h0.3v5.7h-2.9v3.3h-1.1v5h26.8v-5h-1.1V228.8z M211.5,228.8
		h-3.4v-5.7h3.4V228.8z M206.5,223.1v5.7h-5.3v-5.7H206.5z M208.4,212l0.6,2h-10.3l0.6-2H208.4z M199.5,215.6h8.6v2.2h-8.6V215.6z
		 M211.7,219.5l0.6,2h-17l0.6-2H211.7z M196.2,223.1h3.4v5.7h-3.4V223.1z M193.2,230.5h21.2v1.7h-21.2V230.5z M215.6,235.4h-23.4
		v-1.7h23.4V235.4z M215.6,235.4"/>
</g>
<path class="st36" d="M329,179.9c0,0-7,23.1,0.7,25c7.8,1.9,19.7-9.5,30.1-29.9l2.2-8.3c0,0-2.9,1.1-7.4,5.5
	c-4.5,4.4-12.2,12.2-16.2,14.7l1.1-12.1L329,179.9z"/>
<path class="st37" d="M287.1,213.6c0,0-4.2,59.5,7.7,89.6l59.1,43.8l2.2-8.4l-45.9-44.4c0,0-6.9-27.1-3.4-43.6l9.2-2.1
	c0,0,1.9,76.4,5.7,119.4h8.4c0,0,8.4-120.5,3.4-147.2C328.6,194.2,287.1,213.6,287.1,213.6z"/>
<g>
	<path class="st38" d="M317.8,301.6l7,5.8c-1.2-28.8-2.3-60-2.3-60l-6.5,1.2C316.1,253.8,316.9,280.2,317.8,301.6z"/>
	<path class="st38" d="M323.9,319.6c-0.1,1.7,2.1,5,2,6.7l28,20.8l1.1-4.3L323.9,319.6z"/>
	<path class="st38" d="M325.6,320.8l-23.8-17.6c-11.9-30.1-7.7-89.6-7.7-89.6s12-5.6,23.8-6.7c-13.6-1.4-30.8,6.7-30.8,6.7
		s-4.2,59.5,7.7,89.6l23.8,17.6c0.8,16.7,1.8,33.6,3,47.1h7C327.4,354.4,326.4,337.6,325.6,320.8z"/>
</g>
<path class="st9" d="M321.6,368v6.3c0,0,16.2,9,28.1,10.5c0,0,1.8-8.4-18.8-14.2l-0.9-2.7H321.6z"/>
<path class="st39" d="M328.9,368h-7.3v6.3c0,0,4.4,2.4,10.3,5C330.1,375.9,329.1,372.1,328.9,368z"/>
<path class="st40" d="M321.6,372.4v1.9c0,0,16.2,9,28.1,10.5c0,0,0.2-0.8-0.2-2C337.7,381.3,321.6,372.4,321.6,372.4z"/>
<path class="st39" d="M355.6,340.6l11.9,8.7c0,0-3.3,16.9-8.5,18.7h-12.9c0,0-0.2-5.1,8.6-7.5l3-12.3l-3.3-2.5L355.6,340.6z"/>
<path class="st9" d="M356.9,351.2c3.2,2,5.9,4.6,8,7.7c1.7-4.8,2.6-9.6,2.6-9.6l-11.9-8.7l-1.3,5l3.3,2.5L356.9,351.2z"/>
<g>
	<path class="st40" d="M366.1,348.3c-0.5,2.3-3.6,16.8-8.5,18.4h-11.4c-0.3,0.8-0.2,1.3-0.2,1.3H359c5.3-1.7,8.5-18.7,8.5-18.7
		L366.1,348.3z"/>
</g>
<path class="st30" d="M286.7,228.1c0,0,26.4,10.5,49.5,5c0,0-9.3-43.5-3.2-69.1c0,0-22.9-19.9-43.5-7.1
	C289.6,156.9,277.5,167.3,286.7,228.1z"/>
<path class="st30" d="M319.9,212.4c-9.8-3.3-18-9.7-23.3-18c-4.3-5.2-7.2-10.6-7.3-17.7c-0.1-2.6,0.3-5.2,1-7.7
	c0.7-5.9,3.5-11.3,7.6-15.5c-2.8,0.7-5.5,1.8-8.3,3.5c0,0-12.1,10.4-2.8,71.1c0,0,26.4,10.5,49.5,5c0,0-1.7-8.2-3.2-19.6
	C328.4,214,323.8,213.6,319.9,212.4z"/>
<path class="st41" d="M261.8,240.8c3.5,2.3,0.7,2,2.6,5.6c0.4-0.3,8.8-3.4,9-3.9c5.4-11.3,13-73.8,13-73.8s-1.3-1.4-1.3-2.5
	c-1.7,0.1-3.4,0.2-5.2,0.2c-0.8,0,6-10.4,5.2-10.5c0,0.8-9.1,0.8-10.6,12.2C268.4,214.9,270,241.1,261.8,240.8z"/>
<g>
	<path class="st42" d="M285.2,166.3c-1.7,0.1-3.4,0.2-5.2,0.2c-0.8,0,6-10.4,5.2-10.5c0,0.6-4.9,0.7-8.1,5.2
		c2.4-1.5,4.7-1.7,4.7-2.1c0.8,0.1-6,10.5-5.2,10.5c1.8,0,3.5-0.1,5.2-0.2c0,1,1.3,2.5,1.3,2.5s-6.9,56.9-12.3,71.9
		c1.4-0.6,2.5-1.1,2.6-1.3c5.4-11.3,13-73.8,13-73.8S285.2,167.3,285.2,166.3z"/>
	<path class="st42" d="M262.4,240.7c-0.2,0-0.4,0.1-0.6,0c0.2,0.1,0.3,0.2,0.5,0.3C262.3,241,262.4,240.9,262.4,240.7z"/>
</g>
<path class="st30" d="M298,146.7c0,0-12-3.8-18.8,5c-3,4.3-6.9,6.9-8.5,23.5c0,0,4.9,5.3,15.3,5.2l3.9-8.8l36.6,0.5l2.7,11.7
	l11.8-4.9c0,0,4.8-18.6-10.9-23.6C323.2,153.1,298,146.7,298,146.7z"/>
<path class="st30" d="M289.3,170.4c0.1-9,1.9-16.7,4.8-24.5c-4.1-0.4-10.5,0.1-14.9,5.7c-3,4.3-6.9,6.9-8.5,23.5
	c0,0,4.9,5.3,15.3,5.2l3.3-7.5C289.3,172.1,289.3,171.3,289.3,170.4z"/>
<path class="st41" d="M262.8,240.6c0,0-9.3,0.7-9.1,6.5c0,0,1,7.8,2,6.5c0,0,1.6-0.5,0.9-6.5c0,0-0.2,7.8,3,7.8
	c1.1,0,0.7-7.8,0.7-7.8s0.6,7.8,3.6,7.8c1.4,0,0.4-7.7,0.4-7.7s8.5,0.1,9.1-4.7C274.1,237.8,262.8,240.6,262.8,240.6z"/>
<path class="st42" d="M272.1,240.3c-3.2,3.6-10.3,4.3-14.4,4.3c-0.9,0-2-0.1-3.1-0.3c-0.6,0.8-0.9,1.8-0.9,3c0,0,1,7.8,2,6.5
	c0,0,1-0.3,1-3.5c0.3,2.2,1,4.7,2.8,4.8c1.1,0,0.7-7.8,0.7-7.8s0.6,7.8,3.6,7.8c1.4,0,0.4-7.7,0.4-7.7s8.5,0.1,9.1-4.7
	C273.6,241.4,273,240.7,272.1,240.3z"/>
<g>
	<polygon class="st43" points="348.5,183.9 347.7,171.3 374.5,169.6 375.3,182.3 374.6,182.3 373.8,170.5 348.5,172 349.2,183.9 	
		"/>
</g>
<polygon class="st7" points="347.6,182.6 376,180.8 372.2,203.2 354.2,204.4 "/>
<path class="st41" d="M298.6,146.8c0,0-1.6,12.7,11.2,13.6c12.8,1,9.9-8.2,9.9-8.2L298.6,146.8z"/>
<path class="st41" d="M297.5,113c-4.3,14.2,2,29.1,14.2,32.2c14,3.6,25.4-4.9,29.6-19.1c4.3-14.2-2.1-28.6-14.2-32.2
	C315,90.3,301.8,98.8,297.5,113z"/>
<path class="st42" d="M302.6,128.4c0.3-2.6,1-5.3,1.8-7.8c0.8-2.5,2.3-4.8,3.7-7c2.2-3,5-5.3,8.4-6.9c1.8-0.5,3.7-1.1,5.5-1.6
	c5.6-0.9,11.3,0.5,15.9,3.8c1.7,1.3,3.2,2.8,4.5,4.5c-1.3-9.2-6.9-16.9-15.3-19.5c-12.1-3.6-25.4,4.9-29.6,19.1
	c-3.6,11.8,0.2,24.2,8.7,29.8C303.4,138.7,301.9,133.6,302.6,128.4z"/>
<path class="st42" d="M305.7,142.6l-2,10l9.7,3.3l2-9.6C311.7,146.2,308.4,144.8,305.7,142.6z"/>
<path class="st41" d="M310.7,148.6c-2.1,0-4.1-0.4-6-1.2l-1.1,5.2l9.7,3.3l1.6-7.5C313.6,148.6,312.2,148.6,310.7,148.6z"/>
<path class="st44" d="M296.2,124.5c0.9,3,2.1,5.9,3.5,8.6c0.4,0.7,0.7,1.3,1.1,2c0.4,0.6,0.8,1.3,1.2,1.9c0.2,0.3,0.4,0.6,0.7,0.9
	c0.2,0.3,0.5,0.6,0.7,0.8c0.5,0.6,1,1.1,1.5,1.6l0.8,0.7l0.8,0.7c0.6,0.4,1.2,0.8,1.8,1.1c0.3,0.2,0.6,0.3,0.9,0.5
	c0.3,0.1,0.6,0.3,1,0.4l1,0.4l1,0.3c0.3,0.1,0.7,0.2,1,0.2c0.4,0.1,0.7,0.1,1.1,0.2c0.7,0.1,1.4,0.1,2.2,0.1c0.7,0,1.4-0.1,2.2-0.1
	c0.7-0.1,1.5-0.2,2.2-0.3l-0.1,0l2.2-0.7l1.1-0.3c0.4-0.1,0.7-0.3,1.1-0.4l2.1-0.8c0.7-0.4,1.3-0.7,2-1c0.4-0.2,0.6-0.4,1-0.6
	l0.9-0.6c0.3-0.2,0.6-0.5,0.9-0.7c0.3-0.2,0.6-0.5,0.9-0.7c0.3-0.3,0.5-0.6,0.8-0.8c0.3-0.3,0.5-0.6,0.8-0.9l1.6-1.8
	c-0.3,0.7-0.7,1.4-1.1,2.1c-0.2,0.4-0.4,0.7-0.6,1.1c-0.2,0.3-0.4,0.7-0.7,1c-0.2,0.3-0.5,0.6-0.8,1c-0.3,0.3-0.5,0.7-0.8,0.9
	l-0.9,0.8c-0.3,0.3-0.6,0.6-1,0.8c-0.7,0.5-1.3,1-2,1.4l-2.2,1.1c-0.4,0.2-0.7,0.4-1.1,0.5l-1.1,0.5l-2.3,0.9l0,0l-0.1,0
	c-0.8,0.1-1.6,0.3-2.4,0.4c-0.8,0.1-1.6,0.2-2.5,0.2c-0.4,0-0.8,0-1.3,0l-1.3-0.1c-0.4,0-0.8-0.1-1.3-0.2c-0.4-0.1-0.8-0.1-1.2-0.3
	l-1.2-0.3l-1.2-0.4c-0.4-0.1-0.8-0.4-1.2-0.5c-0.4-0.2-0.8-0.4-1.1-0.6c-0.7-0.4-1.4-0.9-2.1-1.4l-1-0.8c-0.3-0.3-0.6-0.6-0.9-0.9
	c-0.6-0.6-1.1-1.2-1.6-1.9c-0.3-0.3-0.5-0.7-0.7-1c-0.2-0.3-0.4-0.7-0.6-1c-0.4-0.7-0.8-1.4-1.1-2.2c-0.3-0.7-0.6-1.5-0.9-2.2
	c-0.3-0.8-0.5-1.5-0.7-2.3c-0.2-0.8-0.4-1.5-0.5-2.3c-0.2-0.8-0.3-1.6-0.4-2.3C296.3,126.1,296.2,125.3,296.2,124.5z"/>
<path class="st45" d="M307.6,142.3c-0.3-0.2-0.7-0.4-1-0.7l-0.8-0.7l-0.8-0.7c-0.5-0.5-1-1-1.5-1.6c-0.2-0.3-0.5-0.5-0.7-0.8
	c-0.2-0.3-0.5-0.6-0.7-0.9c-0.4-0.6-0.9-1.2-1.2-1.9c-0.4-0.6-0.8-1.3-1.1-2c-1.4-2.7-2.6-5.6-3.5-8.6c0,0.8,0.1,1.6,0.2,2.4
	c0.1,0.8,0.2,1.6,0.4,2.3c0.2,0.8,0.3,1.6,0.5,2.3c0.2,0.8,0.5,1.5,0.7,2.3c0.3,0.8,0.6,1.5,0.9,2.2c0.4,0.7,0.7,1.5,1.1,2.2
	c0.2,0.4,0.4,0.7,0.6,1c0.2,0.3,0.4,0.7,0.7,1c0.5,0.7,1,1.3,1.6,1.9c0.3,0.3,0.6,0.6,0.9,0.9l1,0.8c0.7,0.5,1.3,1,2.1,1.4
	c0.4,0.2,0.7,0.4,1.1,0.6c0.2,0.1,0.4,0.2,0.6,0.3C308.2,145,307.8,143.6,307.6,142.3z"/>
<path class="st30" d="M346.4,115.5c0.2-12-6.9-22.7-18.3-25.9c-14.1-3.9-29.6,5.2-34.7,20.5c0,0-3,9.5,0,18.2c0,0,6-7.5,9.2-15.5
	l0,0l11.1-3.6l16.8,6.3l4.2,7.9h0c-1.1,3.8-2,9.6,1.5,14.2C336.2,137.6,347.7,128.3,346.4,115.5z"/>
<g>
	<path class="st46" d="M295.1,130c1.4-1.6,2.6-3.4,3.8-5.1c2.5-3.7,4-7.8,6.2-11.6c2.2-3.8,11.9-1.1,14.9-0.3c3,0.9,5.9,2.2,8.5,3.9
		c1,0.7,4.8,3.9,4.3,5.2c-2.3,5.7-2,12.4,1.9,17.3c1.8,2.4,5.1-1,3.3-3.3c-4.5-5.8,1.2-11.8-1.8-17.8c-2.8-5.5-10-8.4-15.6-10
		c-5.3-1.5-12.4-2.5-17.3,0.6c-2.9,1.8-3.7,5.9-5.2,8.7c-1.7,3.2-3.8,6.3-6.1,9.1C289.9,129,293.2,132.3,295.1,130L295.1,130z"/>
</g>
<g>
	<path class="st47" d="M337.9,136c-4.5-5.8,1.2-11.8-1.8-17.8c-2.8-5.5-10-8.4-15.6-10c-2.2-0.6-4.8-1.2-7.4-1.4
		c0.2,1.6,0.3,3.1,0.2,4.6c2.8,0.4,5.4,1.1,6.8,1.5c3,0.9,5.9,2.2,8.5,3.9c1,0.7,4.8,3.9,4.3,5.2c-2.3,5.7-2,12.4,1.9,17.3
		C336.4,141.6,339.7,138.3,337.9,136z"/>
</g>
<g>
	<path d="M303.7,120.4c0.1-1.1,0.7-2.2,1.7-2.9c1-0.7,2.3-1,3.5-0.8c1.2,0.1,2.6,1,3,2.2c0.5,1.2,0.3,2.4-0.2,3.4
		c-0.3-1.1-0.6-2-1.1-2.6c-0.5-0.6-1.1-0.9-1.9-1c-0.8-0.1-1.6-0.1-2.4,0.2C305.3,119.2,304.5,119.7,303.7,120.4z"/>
</g>
<g>
	<path d="M321.1,124.4c0.2-1.1,0.9-2.1,1.9-2.7c1-0.7,2.4-0.8,3.6-0.5c1.2,0.3,2.4,1.2,2.8,2.5c0.4,1.2,0.1,2.4-0.5,3.3
		c-0.2-1.1-0.4-2-0.9-2.7c-0.4-0.7-1.1-1-1.8-1.2c-0.8-0.2-1.6-0.3-2.4,0C322.9,123.3,322,123.8,321.1,124.4z"/>
</g>
<g>
	<path class="st4" d="M367.2,193.3l-1.2,0.1l-0.1-2.3l0.1,0c0.8,0,1.5-0.7,1.5-1.6l-0.7,0c0,0.4-0.2,0.7-0.6,0.8l-0.5-1.4l-1.3,0.1
		l0-0.9l0.1,0c0.8,0,1.5-0.7,1.5-1.6l-0.7,0c0,0.4-0.2,0.7-0.6,0.8l-0.5-1.4l-4.6,0.2l-0.4,1.4c-0.4-0.1-0.6-0.4-0.6-0.8l-0.7,0
		c0,0.8,0.7,1.5,1.6,1.5l0.1,0l0,0.9l-1.3,0.1l-0.4,1.4c-0.4-0.1-0.6-0.4-0.6-0.8l-0.7,0c0,0.8,0.7,1.5,1.6,1.5l0.1,0l0.1,2.3
		l-1.2,0.1l0.1,1.3l-0.4,0l0.1,2l10.8-0.5l-0.1-2l-0.4,0L367.2,193.3z M365.4,193.4l-1.4,0.1l-0.1-2.3l1.4-0.1L365.4,193.4z
		 M363.2,191.2l0.1,2.3l-2.2,0.1l-0.1-2.3L363.2,191.2z M363.8,186.6l0.3,0.8l-4.1,0.2l0.2-0.8L363.8,186.6z M360.3,188.3l3.5-0.2
		l0,0.9l-3.5,0.2L360.3,188.3z M365.3,189.6l0.3,0.8l-6.9,0.3l0.2-0.8L365.3,189.6z M359,191.4l1.4-0.1l0.1,2.3l-1.4,0.1L359,191.4z
		 M358,194.4l8.6-0.4l0,0.7l-8.6,0.4L358,194.4z M367.1,196l-9.5,0.4l0-0.7l9.5-0.4L367.1,196z M367.1,196"/>
</g>
<path d="M303.7,114.7c0,0,2.5-6.3,11.1-2.4l-1.7,2.2C313.1,114.5,309.2,112.8,303.7,114.7z"/>
<path d="M332,121.9c0,0,0.6-6.7-8.8-7.1l0.6,2.7C323.7,117.4,327.9,117.7,332,121.9z"/>
<path class="st42" d="M319,124.3c0,0-0.3,3.6,2.3,3.6c2.6,0,1.6,4-1.6,3.9c-3.2-0.1-4.1-5.3-3.4-7C317.1,123.2,319.3,122,319,124.3z
	"/>
<path class="st4" d="M304.9,129.3c0,0,11.4,6.9,19.8,5.3c0,0-3.5,4.2-9.9,3C306.7,136.2,304.9,129.3,304.9,129.3z"/>
<g>
	<path class="st42" d="M309.2,137.8c1.6,0.5,3.2,1.1,4.8,1.4c0.8,0.2,1.6,0.3,2.4,0.4c0.8,0,1.6,0,2.4-0.2c-0.6,0.6-1.5,0.9-2.4,1
		c-0.9,0.1-1.8,0-2.6-0.2c-0.8-0.2-1.7-0.5-2.4-0.9C310.6,138.9,309.9,138.4,309.2,137.8z"/>
</g>
<path class="st36" d="M355.3,171.7c0,0,0.9,3.1,2.1,3.9c2.7,1.7,7.9-0.2,7.6-2.7C364.8,170.4,355.3,171.7,355.3,171.7z"/>
<path class="st41" d="M369.4,167c-0.2,0-1.1-0.1-1.9-0.1c-0.1,0-0.1,0-0.2,0c-3.6-0.4-6.5-0.7-8.4,0.8s-2.9,3.1-2.9,3.1
	c5.9-0.8,3.6,4.2,3.6,4.2c-1.2,4.5,2.8,1.4,2.8,1.4c1.9,2,3.3-0.3,3.3-0.3c0.7,1.2,1.7,1,2.4,0c0.3,0.1,0-0.1,0,0
	C370.5,179.8,375.3,168.1,369.4,167z"/>
<circle class="st4" cx="769.2" cy="132.1" r="10.4"/>
<circle class="st4" cx="769.2" cy="180.1" r="10.4"/>
<circle class="st4" cx="741.5" cy="242.9" r="10.4"/>
</svg>
