<?xml version="1.0" encoding="utf-8"?>
<!-- Generator: Adobe Illustrator 16.0.0, SVG Export Plug-In . SVG Version: 6.00 Build 0)  -->
<!DOCTYPE svg PUBLIC "-//W3C//DTD SVG 1.1//EN" "http://www.w3.org/Graphics/SVG/1.1/DTD/svg11.dtd">
<svg version="1.1" id="Layer_1" xmlns="http://www.w3.org/2000/svg" xmlns:xlink="http://www.w3.org/1999/xlink" x="0px" y="0px"
	 width="500px" height="500px" viewBox="0 0 500 500" enable-background="new 0 0 500 500" xml:space="preserve">
<g>
	<path fill="#694B4B" d="M218.646,119.811c0,0,2.735,13.348,9.261,16.109c6.528,2.761,0.103,3.583,0,4.771
		c-0.29,3.423,9.915,5.022,13.745,0c3.832-5.021,10.484-33.393,10.484-33.393h-10.484L218.646,119.811z"/>
	<path fill="#FFCF9F" d="M251.007,141.444c0,0-1.505,6.025,0,10.042l-17.825-5.021c0,0,8.284-7.031,7.282-16.571
		c0,0-7.282,0.25-7.282-8.286c0-6.997,11.059-5.062,10.137,1.144l2.92,0.112l4.27-18.211h12.7
		C263.207,104.653,276.851,135.764,251.007,141.444z"/>
	<path fill="#EF613A" d="M249.117,111.819c0,0,23.655-5.365,30.262-9.785c2.952-1.975,5.765-6.786-13.688-3.775l-19.452,6.394
		L249.117,111.819z"/>
	<path fill="#FF7F57" d="M218.992,120.856l30.125-9.037l16.572-13.56c0,0-15.097-22.836-36.355-11.998
		C205.019,98.657,218.992,120.856,218.992,120.856z"/>
	<path fill="#EF613A" d="M370.778,322.559l-1.415,3.863l-44.449,16.174H159.266V267.57h77.737v28.201
		c0,12.443,10.131,22.557,22.558,22.557h23.734c10.278,0,19.979-4.496,26.626-12.338c6.635-7.829,9.479-18.149,7.783-28.277
		l-7.931-47.647l29.146-1.299l5.13,8.316l19.651,32.742C375.26,289.107,378.8,300.695,370.778,322.559z"/>
	<path fill="#3A414C" d="M411.729,342.691c0,20.841-16.896,37.736-37.737,37.736c-20.839,0-37.736-16.896-37.736-37.736"/>
	<path fill="#515966" d="M373.991,357.266c-8.316,0-15.079-6.767-15.079-15.082c0-8.313,6.763-15.08,15.079-15.08
		c8.315,0,15.081,6.767,15.081,15.08C389.072,350.499,382.308,357.266,373.991,357.266z"/>
	<circle fill="#3A414C" cx="153.166" cy="342.691" r="37.738"/>
	<path fill="#515966" d="M152.79,357.266c-8.315,0-15.08-6.767-15.08-15.082c0-8.313,6.765-15.08,15.08-15.08
		s15.082,6.767,15.082,15.08C167.872,350.499,161.105,357.266,152.79,357.266z"/>
	<path fill="#3A414C" d="M241.004,261.639c0,8.281-6.727,15.008-15.01,15.008H169.66v-30.007h56.334
		c5.689,0,10.648,3.176,13.195,7.849v0.011c0.039,0.069,0.076,0.147,0.104,0.217c0.11,0.187,0.21,0.384,0.297,0.581
		c0.109,0.229,0.209,0.444,0.288,0.672c0.066,0.157,0.141,0.313,0.188,0.473c0.021,0.029,0.029,0.059,0.039,0.099
		c0.078,0.208,0.148,0.424,0.217,0.642c0.148,0.471,0.277,0.967,0.376,1.461c0.048,0.236,0.099,0.473,0.126,0.719
		c0.039,0.207,0.068,0.423,0.09,0.641c0.011,0.107,0.02,0.227,0.029,0.344c0.02,0.148,0.031,0.297,0.031,0.445
		C240.993,261.076,241.004,261.352,241.004,261.639z"/>
	<path fill="#9B6331" d="M168.467,203.232c0.47,0.472,0.87,1.018,1.193,1.592C169.337,204.25,168.921,203.705,168.467,203.232z"/>
	<path fill="#F4CF9D" d="M188.501,195.334v78.298c0,0.427-0.018,0.835-0.087,1.246c-0.039,0.319-0.09,0.623-0.163,0.924
		c-0.267,1.208-0.747,2.351-1.404,3.347c-0.321,0.515-0.693,0.977-1.123,1.422c-0.194,0.216-0.41,0.428-0.639,0.625
		c-0.213,0.195-0.462,0.391-0.694,0.568c-0.232,0.176-0.48,0.356-0.748,0.498c-0.196,0.125-0.392,0.249-0.605,0.338
		c-0.214,0.125-0.444,0.231-0.659,0.319c-0.035,0.019-0.069,0.037-0.106,0.056c-0.302,0.123-0.587,0.229-0.907,0.32
		c-0.284,0.086-0.57,0.178-0.873,0.229c-0.355,0.093-0.729,0.143-1.103,0.182c-0.339,0.035-0.677,0.052-1.032,0.052H91.181
		c-5.586,0-10.124-4.538-10.124-10.125v-78.298c0-0.321,0.017-0.64,0.054-0.942c0.018-0.211,0.035-0.408,0.088-0.604
		c0-0.107,0.018-0.213,0.037-0.32c0.051-0.25,0.105-0.499,0.177-0.732c0.019-0.123,0.053-0.23,0.089-0.355
		c0.017-0.052,0.035-0.105,0.052-0.141c0.054-0.197,0.108-0.375,0.196-0.551c0-0.019,0-0.019,0.017-0.036
		c0.056-0.197,0.142-0.355,0.233-0.551c0-0.018,0.018-0.018,0.018-0.037l0.108-0.212c0.088-0.196,0.194-0.39,0.301-0.569
		c0.034-0.09,0.089-0.159,0.124-0.234c0.036-0.033,0.056-0.088,0.09-0.122c0.089-0.145,0.179-0.269,0.267-0.409
		c0.053-0.071,0.108-0.125,0.142-0.196c0.144-0.179,0.267-0.357,0.409-0.518c0.037-0.053,0.072-0.086,0.107-0.123
		c0.32-0.355,0.658-0.714,1.033-1.032c0.034-0.02,0.051-0.056,0.088-0.073c0.142-0.106,0.267-0.213,0.41-0.32
		c0.106-0.089,0.213-0.162,0.337-0.25c0.125-0.089,0.25-0.16,0.391-0.248c0.125-0.09,0.267-0.163,0.393-0.251
		c0.125-0.07,0.267-0.125,0.391-0.196c0.144-0.069,0.303-0.161,0.447-0.213c0.071-0.035,0.14-0.072,0.194-0.088
		c0.301-0.125,0.605-0.25,0.926-0.339c0.319-0.106,0.641-0.196,0.962-0.25c0.247-0.053,0.496-0.106,0.745-0.125
		c0.089-0.017,0.179-0.034,0.267-0.034c0.338-0.038,0.677-0.054,1.032-0.054h87.177c0.41,0,0.802,0.017,1.192,0.071
		c0.286,0.036,0.57,0.073,0.854,0.143c0.302,0.054,0.605,0.125,0.89,0.233c0.906,0.264,1.743,0.657,2.526,1.154
		c0.232,0.145,0.445,0.301,0.658,0.464c0.213,0.162,0.426,0.338,0.623,0.517c0.197,0.176,0.393,0.355,0.57,0.552
		c0.552,0.569,1.051,1.228,1.441,1.919c0.125,0.179,0.232,0.375,0.321,0.589c0.034,0.071,0.07,0.16,0.124,0.25
		c0.088,0.196,0.179,0.41,0.25,0.623c0.105,0.249,0.195,0.498,0.265,0.766C188.358,193.396,188.501,194.339,188.501,195.334z"/>
	<path fill="#D8A32E" d="M109.259,296.421c1.444-1.149,2.948-2.226,4.497-3.229C112.208,294.211,110.704,295.286,109.259,296.421z"
		/>
	<path fill="#FF7F57" d="M200.222,319.873v22.854c0,0.596-0.185,1.141-0.483,1.601c-0.51,0.758-1.392,1.252-2.372,1.252h-93.989
		c-0.794,0-1.516-0.32-2.023-0.829c-0.521-0.521-0.846-1.23-0.846-2.023c0-0.521,0.015-1.029,0.026-1.541
		c0.025-1.017,0.076-2.047,0.149-3.052c0.039-0.51,0.087-1.006,0.136-1.514c0.038-0.437,0.087-0.87,0.149-1.292
		c0.05-0.396,0.1-0.794,0.163-1.203c0.036-0.273,0.074-0.535,0.111-0.809c0.063-0.383,0.137-0.769,0.199-1.153
		c0.085-0.496,0.185-0.979,0.286-1.466c0.409-2.01,0.92-3.995,1.525-5.934c0.136-0.396,0.261-0.794,0.398-1.179
		c0.297-0.919,0.634-1.813,0.968-2.694c0.025-0.037,0.037-0.074,0.05-0.111c0.159-0.408,0.335-0.818,0.509-1.215
		c0.398-0.957,0.818-1.9,1.278-2.832c0.188-0.396,0.385-0.795,0.584-1.178c0.222-0.436,0.447-0.856,0.669-1.279
		c1.377-2.531,2.941-4.965,4.656-7.274c0.373-0.494,0.745-0.979,1.143-1.464c0.594-0.756,1.214-1.488,1.859-2.221
		c0.461-0.521,0.918-1.043,1.404-1.541c0.521-0.57,1.066-1.115,1.625-1.662c0.547-0.534,1.093-1.055,1.665-1.576
		c0.011,0,0.011,0,0.023-0.012c0.547-0.498,1.105-0.994,1.676-1.479c0.025-0.025,0.063-0.05,0.086-0.074
		c0.583-0.484,1.18-0.97,1.789-1.427c1.217-0.956,2.482-1.862,3.786-2.719c0.644-0.422,1.303-0.833,1.96-1.242
		c0.671-0.397,1.342-0.794,2.024-1.168c0.683-0.37,1.376-0.731,2.073-1.09c0.695-0.349,1.404-0.685,2.109-1.007
		c0.026-0.012,0.038-0.012,0.052-0.026c0.667-0.295,1.353-0.596,2.036-0.866c0.048-0.023,0.111-0.051,0.185-0.074
		c0.594-0.25,1.204-0.485,1.825-0.709c0.16-0.063,0.335-0.121,0.508-0.174c0.67-0.248,1.339-0.471,2.011-0.684
		c5.672-1.801,11.73-2.766,18-2.766h3.176C183.725,283.021,200.222,299.529,200.222,319.873z"/>
	<path fill="#FF7F57" d="M324.549,341.911v-4.104c0-12.393,10.047-31.283,22.44-31.283h41.271c15.487,0,28.941,19.485,32.515,34.554
		l0,0c0.54,2.271-1.186,4.454-3.521,4.454h-89.089C326.168,345.529,324.549,343.909,324.549,341.911z"/>
	<path fill="#FF7F57" d="M294.402,230.794c-3.659,0-6.636-2.974-6.636-6.635v-4.978c0-10.229,8.322-18.55,18.549-18.55h29.269
		v30.162L294.402,230.794L294.402,230.794z"/>
	<path fill="#FF7F57" d="M239.342,145.55L239.342,145.55c12.398,0,20.264,10.142,17.482,22.54l-18.928,84.369h-45.079l18.929-84.369
		C214.527,155.692,226.945,145.55,239.342,145.55z"/>
	<path fill="#FFA780" d="M339.63,238.151c-8.316,0-15.081-10.066-15.081-22.437s6.765-22.436,15.081-22.436
		c8.315,0,15.08,10.064,15.08,22.436C354.71,228.084,347.945,238.151,339.63,238.151z"/>
	<path fill="#EF613A" d="M203.003,245.871h74.717c7.453,0.227,12.177,1.563,13.487,8.22l-0.346,53.509l-20.118,0.105l0.022-38.377
		h-67.764c-6.143,0-11.169-5.025-11.169-11.172v-1.118C191.834,250.898,196.861,245.871,203.003,245.871z"/>
	<path fill="#FFE3EB" d="M243.072,207.986l47.482,10.63c4.23,0.947,6.917,5.183,5.973,9.414v0.003
		c-0.949,4.229-5.185,6.916-9.416,5.968l-51.924-11.623c-4.334,0-7.884-3.546-7.884-7.881v-24.141h15.769V207.986L243.072,207.986z"
		/>
	<path fill="#FFE3EB" d="M243.072,207.986l47.482,10.63c4.23,0.947,6.917,5.183,5.973,9.414v0.003
		c-0.949,4.229-5.185,6.916-9.416,5.968l-51.924-11.623c-4.334,0-7.884-3.546-7.884-7.881v-24.141h15.769V207.986L243.072,207.986z"
		/>
	<path fill="#F9C193" d="M243.072,207.986l47.482,10.63c4.23,0.947,6.917,5.183,5.973,9.414v0.003
		c-0.949,4.229-5.185,6.916-9.416,5.968l-51.924-11.623c-4.334,0-7.884-3.546-7.884-7.881v-24.141h15.769V207.986L243.072,207.986z"
		/>
	<path fill="#EF613A" d="M235.173,166.214L235.173,166.214c6.231,0,10.813,5.098,10.183,11.331l-1.297,12.811h-22.664l1.297-12.811
		C223.323,171.312,228.939,166.214,235.173,166.214z"/>
	<path fill="#FFD5DF" d="M296.527,238.378c5.696,0,10.345-4.647,10.345-10.345c0-5.7-4.647-10.349-10.345-10.349
		c-5.698,0-10.349,4.648-10.349,10.349C286.18,233.731,290.829,238.378,296.527,238.378z"/>
	<path fill="#FFD5DF" d="M296.527,238.378c5.696,0,10.345-4.647,10.345-10.345c0-5.7-4.647-10.349-10.345-10.349
		c-5.698,0-10.349,4.648-10.349,10.349C286.18,233.731,290.829,238.378,296.527,238.378z"/>
	<path fill="#FFCF9F" d="M296.527,238.378c5.696,0,10.345-4.647,10.345-10.345c0-5.7-4.647-10.349-10.345-10.349
		c-5.698,0-10.349,4.648-10.349,10.349C286.18,233.731,290.829,238.378,296.527,238.378z"/>
	<path fill="#3A414C" d="M270.316,303.057h27.067c4.31,0,7.835,3.525,7.835,7.832v0.786c0,4.308-3.525,7.835-7.835,7.835H278.15
		c-4.31,0-7.834-3.527-7.834-7.835V303.057L270.316,303.057z"/>
	<g>
		<g>
			<g>
				<defs>
					<path id="SVGID_1_" d="M130.16,215.892c-0.175-0.31-0.374-0.61-0.594-0.895c-0.07-0.098-0.142-0.193-0.218-0.287
						c-0.227-0.28-0.472-0.552-0.728-0.811c-0.009-0.008-0.014-0.02-0.025-0.025c-0.013-0.013-0.027-0.025-0.038-0.04
						c-2.1-2.111-4.835-3.426-4.943-3.474c2.788,6.362,0.451,10.738-0.447,12.186c-0.187,0.304-0.366,0.609-0.525,0.929
						c-0.921,1.903-1.438,4.041-1.438,6.297c0,6.554,4.355,12.094,10.332,13.875l4.142,5.964l4.095-5.945
						c6.007-1.764,10.392-7.317,10.392-13.895c0-2.406-0.91-6.07-2.399-8.086c-6.031-8.189-1.778-13.514-1.18-14.194
						c0.046-0.05,0.067-0.077,0.067-0.077c-3.568,1.205-5.958,4.023-5.958,4.023c-0.143-1.033-0.374-1.977-0.666-2.845
						c-0.041-0.124-0.082-0.232-0.117-0.338c-0.095-0.257-0.192-0.504-0.292-0.747c-0.006,0-0.006-0.003-0.006-0.003
						c-1.972-4.614-5.625-6.51-5.763-6.58C137.931,210.889,130.16,215.892,130.16,215.892"/>
				</defs>
				<clipPath id="SVGID_2_">
					<use xlink:href="#SVGID_1_"  overflow="visible"/>
				</clipPath>
				<rect x="121.202" y="200.926" clip-path="url(#SVGID_2_)" fill="#F9593C" width="28.96" height="48.685"/>
			</g>
			<g>
				<defs>
					<path id="SVGID_3_" d="M130.16,215.892c-0.175-0.31-0.374-0.61-0.594-0.895c-0.07-0.098-0.142-0.193-0.218-0.287
						c-0.227-0.28-0.472-0.552-0.728-0.811c-0.009-0.008-0.014-0.02-0.025-0.025c-0.013-0.013-0.027-0.025-0.038-0.04
						c-2.1-2.111-4.835-3.426-4.943-3.474c2.788,6.362,0.451,10.738-0.447,12.186c-0.187,0.304-0.366,0.609-0.525,0.929
						c-0.921,1.903-1.438,4.041-1.438,6.297c0,6.554,4.355,12.094,10.332,13.875l4.142,5.964l4.095-5.945
						c6.007-1.764,10.392-7.317,10.392-13.895c0-2.406-0.91-6.07-2.399-8.086c-6.031-8.189-1.778-13.514-1.18-14.194
						c0.046-0.05,0.067-0.077,0.067-0.077c-3.568,1.205-5.958,4.023-5.958,4.023c-0.143-1.033-0.374-1.977-0.666-2.845
						c-0.041-0.124-0.082-0.232-0.117-0.338c-0.095-0.257-0.192-0.504-0.292-0.747c-0.006,0-0.006-0.003-0.006-0.003
						c-1.972-4.614-5.625-6.51-5.763-6.58C137.931,210.889,130.16,215.892,130.16,215.892"/>
				</defs>
				<clipPath id="SVGID_5_">
					<use xlink:href="#SVGID_3_"  overflow="visible"/>
				</clipPath>
				
					<linearGradient id="SVGID_7_" gradientUnits="userSpaceOnUse" x1="-475.0645" y1="-522.2148" x2="-474.876" y2="-522.2148" gradientTransform="matrix(0 -258.3308 258.3308 0 135116.7188 -122474.0469)">
					<stop  offset="0" style="stop-color:#FF3B3B"/>
					<stop  offset="0.1781" style="stop-color:#FF403B"/>
					<stop  offset="0.3998" style="stop-color:#FF503C"/>
					<stop  offset="0.6446" style="stop-color:#FF693C"/>
					<stop  offset="0.9044" style="stop-color:#FF8C3E"/>
					<stop  offset="0.9944" style="stop-color:#FF9A3E"/>
					<stop  offset="1" style="stop-color:#FF9A3E"/>
				</linearGradient>
				<rect x="198.029" y="201.167" clip-path="url(#SVGID_5_)" fill="url(#SVGID_7_)" width="28.963" height="48.684"/>
			</g>
		</g>
		<g>
			<path fill="#FFFFFF" d="M135.642,236.249c-1.717,0-3.335-0.669-4.549-1.885c-1.214-1.214-1.883-2.83-1.883-4.548
				c0-1.717,0.669-3.332,1.883-4.547c1.214-1.213,2.832-1.884,4.549-1.884c1.717,0,3.333,0.671,4.545,1.884
				c1.217,1.215,1.886,2.83,1.886,4.547c0,1.718-0.669,3.334-1.886,4.548C138.975,235.58,137.359,236.249,135.642,236.249z
				 M135.642,224.021c-1.549,0-3.005,0.601-4.1,1.699c-1.095,1.093-1.698,2.549-1.698,4.096c0,1.548,0.603,3.005,1.698,4.098
				c1.094,1.098,2.55,1.701,4.1,1.701c1.547,0,3-0.603,4.096-1.701c1.096-1.092,1.698-2.55,1.698-4.098
				c0-1.546-0.602-3.002-1.698-4.096C138.642,224.623,137.189,224.021,135.642,224.021z"/>
		</g>
		<g>
			
				<rect x="128.523" y="225.188" transform="matrix(-0.7072 -0.707 0.707 -0.7072 64.7303 477.8202)" fill="#FFFFFF" width="5.57" height="0.636"/>
		</g>
		<g>
			
				<rect x="137.257" y="233.908" transform="matrix(-0.7068 -0.7074 0.7074 -0.7068 73.3421 498.8494)" fill="#FFFFFF" width="5.567" height="0.637"/>
		</g>
		<g>
			
				<rect x="139.624" y="222.723" transform="matrix(-0.7071 -0.7071 0.7071 -0.7071 79.4381 483.92)" fill="#FFFFFF" width="0.635" height="5.569"/>
		</g>
		<g>
			
				<rect x="131.091" y="231.444" transform="matrix(-0.7048 -0.7094 0.7094 -0.7048 57.862 492.5357)" fill="#FFFFFF" width="0.636" height="5.569"/>
		</g>
		<g>
			<path fill="#FFFFFF" d="M136.665,229.753c0,0.532-0.43,0.96-0.961,0.96c-0.528,0-0.96-0.429-0.96-0.96
				c0-0.531,0.432-0.961,0.96-0.961C136.235,228.792,136.665,229.223,136.665,229.753"/>
		</g>
		<g>
			<g>
				<path id="SVGID_4_" d="M104.993,256.666c-0.904,0.885-1.364,1.966-1.381,3.229v6.914c0,0.238,0.085,0.44,0.253,0.608
					c0.165,0.171,0.364,0.253,0.597,0.253c0.236,0,0.44-0.082,0.608-0.253c0.162-0.168,0.243-0.371,0.243-0.608v-6.857
					c0-0.805,0.286-1.49,0.86-2.063c0.575-0.574,1.263-0.861,2.064-0.861c0.801,0,1.491,0.289,2.064,0.861
					c0.571,0.572,0.86,1.258,0.86,2.063s-0.289,1.492-0.86,2.066c-0.573,0.572-1.263,0.856-2.064,0.856
					c-0.448,0-0.875-0.095-1.279-0.293c-0.21-0.108-0.425-0.121-0.648-0.043c-0.226,0.079-0.389,0.224-0.489,0.43
					c-0.103,0.212-0.117,0.433-0.041,0.658c0.078,0.216,0.223,0.381,0.435,0.489c0.635,0.309,1.309,0.463,2.023,0.463
					c1.274,0,2.364-0.454,3.27-1.355c0.905-0.906,1.356-1.996,1.356-3.271c0-1.273-0.451-2.364-1.356-3.266
					c-0.906-0.908-1.996-1.357-3.27-1.357C106.975,255.328,105.893,255.773,104.993,256.666"/>
			</g>
			<g>
				<defs>
					<path id="SVGID_9_" d="M104.993,256.666c-0.904,0.885-1.364,1.966-1.381,3.229v6.914c0,0.238,0.085,0.44,0.253,0.608
						c0.165,0.171,0.364,0.253,0.597,0.253c0.236,0,0.44-0.082,0.608-0.253c0.162-0.168,0.243-0.371,0.243-0.608v-6.857
						c0-0.805,0.286-1.49,0.86-2.063c0.575-0.574,1.263-0.861,2.064-0.861c0.801,0,1.491,0.289,2.064,0.861
						c0.571,0.572,0.86,1.258,0.86,2.063s-0.289,1.492-0.86,2.066c-0.573,0.572-1.263,0.856-2.064,0.856
						c-0.448,0-0.875-0.095-1.279-0.293c-0.21-0.108-0.425-0.121-0.648-0.043c-0.226,0.079-0.389,0.224-0.489,0.43
						c-0.103,0.212-0.117,0.433-0.041,0.658c0.078,0.216,0.223,0.381,0.435,0.489c0.635,0.309,1.309,0.463,2.023,0.463
						c1.274,0,2.364-0.454,3.27-1.355c0.905-0.906,1.356-1.996,1.356-3.271c0-1.273-0.451-2.364-1.356-3.266
						c-0.906-0.908-1.996-1.357-3.27-1.357C106.975,255.328,105.893,255.773,104.993,256.666"/>
				</defs>
				<clipPath id="SVGID_10_">
					<use xlink:href="#SVGID_9_"  overflow="visible"/>
				</clipPath>
				<rect x="103.611" y="255.328" clip-path="url(#SVGID_10_)" width="9.251" height="12.343"/>
			</g>
		</g>
		<g>
			<g>
				<path id="SVGID_6_" d="M114.04,258.959c-0.166,0.167-0.251,0.369-0.251,0.607v7.24c0,0.239,0.085,0.441,0.251,0.609
					c0.165,0.171,0.364,0.253,0.6,0.253c0.236,0,0.438-0.082,0.606-0.253c0.162-0.168,0.243-0.371,0.243-0.609v-7.24
					c0-0.238-0.081-0.441-0.243-0.607c-0.168-0.163-0.37-0.246-0.606-0.246C114.404,258.713,114.205,258.796,114.04,258.959
					 M114.565,255.328c-0.236,0-0.438,0.08-0.607,0.246c-0.169,0.167-0.253,0.369-0.253,0.605c0,0.235,0.084,0.436,0.253,0.598
					c0.169,0.168,0.371,0.25,0.607,0.25h0.125c0.235,0,0.439-0.082,0.607-0.25c0.167-0.162,0.253-0.362,0.253-0.598
					c0-0.236-0.085-0.439-0.253-0.605s-0.373-0.246-0.607-0.246H114.565z"/>
			</g>
			<g>
				<defs>
					<path id="SVGID_11_" d="M114.04,258.959c-0.166,0.167-0.251,0.369-0.251,0.607v7.24c0,0.239,0.085,0.441,0.251,0.609
						c0.165,0.171,0.364,0.253,0.6,0.253c0.236,0,0.438-0.082,0.606-0.253c0.162-0.168,0.243-0.371,0.243-0.609v-7.24
						c0-0.238-0.081-0.441-0.243-0.607c-0.168-0.163-0.37-0.246-0.606-0.246C114.404,258.713,114.205,258.796,114.04,258.959
						 M114.565,255.328c-0.236,0-0.438,0.08-0.607,0.246c-0.169,0.167-0.253,0.369-0.253,0.605c0,0.235,0.084,0.436,0.253,0.598
						c0.169,0.168,0.371,0.25,0.607,0.25h0.125c0.235,0,0.439-0.082,0.607-0.25c0.167-0.162,0.253-0.362,0.253-0.598
						c0-0.236-0.085-0.439-0.253-0.605s-0.373-0.246-0.607-0.246H114.565z"/>
				</defs>
				<clipPath id="SVGID_12_">
					<use xlink:href="#SVGID_11_"  overflow="visible"/>
				</clipPath>
				<rect x="113.704" y="255.328" clip-path="url(#SVGID_12_)" width="1.846" height="12.343"/>
			</g>
		</g>
		<g>
			<g>
				<path id="SVGID_8_" d="M118.905,259.582v-0.016c0-0.237-0.08-0.44-0.242-0.606c-0.168-0.163-0.373-0.246-0.607-0.246
					c-0.236,0-0.436,0.083-0.598,0.246c-0.169,0.167-0.253,0.369-0.253,0.606v7.242c0,0.238,0.083,0.44,0.253,0.608
					c0.163,0.171,0.362,0.253,0.598,0.253c0.235,0,0.439-0.082,0.607-0.253c0.162-0.168,0.242-0.371,0.242-0.608v-3.621
					c0-0.765,0.245-1.42,0.733-1.961c0.485-0.543,1.066-0.81,1.746-0.81c0.679,0,1.259,0.271,1.743,0.815
					c0.484,0.539,0.725,1.19,0.725,1.955v3.621c0,0.238,0.085,0.44,0.253,0.608c0.169,0.171,0.371,0.253,0.607,0.253
					c0.234,0,0.435-0.082,0.597-0.253c0.167-0.168,0.252-0.371,0.252-0.608v-3.621c0-1.237-0.408-2.287-1.229-3.172
					c-0.813-0.869-1.796-1.303-2.948-1.303C120.468,258.713,119.643,259.001,118.905,259.582"/>
			</g>
			<g>
				<defs>
					<path id="SVGID_13_" d="M118.905,259.582v-0.016c0-0.237-0.08-0.44-0.242-0.606c-0.168-0.163-0.373-0.246-0.607-0.246
						c-0.236,0-0.436,0.083-0.598,0.246c-0.169,0.167-0.253,0.369-0.253,0.606v7.242c0,0.238,0.083,0.44,0.253,0.608
						c0.163,0.171,0.362,0.253,0.598,0.253c0.235,0,0.439-0.082,0.607-0.253c0.162-0.168,0.242-0.371,0.242-0.608v-3.621
						c0-0.765,0.245-1.42,0.733-1.961c0.485-0.543,1.066-0.81,1.746-0.81c0.679,0,1.259,0.271,1.743,0.815
						c0.484,0.539,0.725,1.19,0.725,1.955v3.621c0,0.238,0.085,0.44,0.253,0.608c0.169,0.171,0.371,0.253,0.607,0.253
						c0.234,0,0.435-0.082,0.597-0.253c0.167-0.168,0.252-0.371,0.252-0.608v-3.621c0-1.237-0.408-2.287-1.229-3.172
						c-0.813-0.869-1.796-1.303-2.948-1.303C120.468,258.713,119.643,259.001,118.905,259.582"/>
				</defs>
				<clipPath id="SVGID_14_">
					<use xlink:href="#SVGID_13_"  overflow="visible"/>
				</clipPath>
				<rect x="117.205" y="258.713" clip-path="url(#SVGID_14_)" width="8.356" height="8.958"/>
			</g>
		</g>
		<path d="M127.197,267.671c-0.236,0-0.438-0.082-0.607-0.253c-0.167-0.167-0.25-0.361-0.25-0.598s0.083-0.439,0.25-0.607
			c0.169-0.163,0.371-0.242,0.607-0.242h3.733c0.663,0,1.176-0.162,1.543-0.484c0.371-0.317,0.562-0.77,0.581-1.354
			c0.015-0.764-0.164-1.27-0.542-1.516c-0.306-0.205-0.989-0.34-2.045-0.417c-1.242-0.081-2.138-0.277-2.688-0.581
			c-0.967-0.534-1.447-1.494-1.439-2.887c0.012-0.894,0.293-1.668,0.849-2.328c0.608-0.719,1.379-1.075,2.316-1.075h3.634
			c0.236,0,0.438,0.084,0.605,0.254c0.162,0.16,0.243,0.362,0.243,0.597c0,0.233-0.081,0.437-0.243,0.607
			c-0.167,0.162-0.369,0.24-0.605,0.24h-3.634c-0.476,0-0.849,0.207-1.12,0.617c-0.222,0.326-0.335,0.692-0.335,1.104
			c-0.006,0.691,0.173,1.146,0.539,1.375c0.303,0.178,0.969,0.304,1.996,0.377c1.269,0.089,2.185,0.295,2.748,0.615
			c0.98,0.562,1.457,1.582,1.424,3.056c-0.026,1.047-0.387,1.896-1.088,2.537c-0.703,0.642-1.616,0.963-2.737,0.963H127.197
			L127.197,267.671z"/>
		<path d="M137.524,260.417v2.771c0,0.763,0.274,1.416,0.819,1.961c0.538,0.541,1.193,0.811,1.963,0.811
			c0.23,0,0.428,0.084,0.596,0.253c0.169,0.167,0.252,0.367,0.252,0.597c0,0.238-0.083,0.44-0.252,0.608
			c-0.167,0.171-0.365,0.253-0.596,0.253c-1.235,0-2.291-0.441-3.169-1.314c-0.875-0.877-1.313-1.932-1.313-3.168v-7.254
			c0-0.231,0.084-0.43,0.253-0.599c0.162-0.169,0.363-0.252,0.596-0.252c0.239,0,0.441,0.083,0.607,0.252
			c0.164,0.168,0.244,0.367,0.244,0.599v2.779h2.782c0.23,0,0.428,0.083,0.596,0.246c0.169,0.167,0.252,0.369,0.252,0.607
			c0,0.235-0.083,0.433-0.252,0.594c-0.167,0.172-0.365,0.256-0.596,0.256L137.524,260.417L137.524,260.417z"/>
		<path d="M145.528,258.713c1.228,0,2.283,0.434,3.161,1.303c0.874,0.885,1.312,1.935,1.312,3.172c0,1.236-0.438,2.291-1.312,3.168
			c-0.878,0.875-1.934,1.314-3.161,1.314c-1.237,0-2.293-0.441-3.168-1.314c-0.875-0.877-1.313-1.932-1.313-3.168
			c0-1.237,0.438-2.287,1.313-3.172C143.235,259.146,144.291,258.713,145.528,258.713 M145.528,265.959
			c0.765,0,1.416-0.27,1.953-0.811c0.546-0.545,0.819-1.198,0.819-1.961c0-0.767-0.273-1.416-0.819-1.955
			c-0.537-0.547-1.188-0.815-1.953-0.815c-0.771,0-1.423,0.271-1.964,0.815c-0.544,0.539-0.817,1.188-0.817,1.955
			c0,0.763,0.273,1.416,0.817,1.961C144.105,265.689,144.758,265.959,145.528,265.959"/>
		<path d="M157.88,258.79c0.214,0.094,0.363,0.255,0.446,0.479c0.079,0.221,0.073,0.435-0.023,0.65l-3.328,7.253
			c-0.151,0.331-0.41,0.499-0.774,0.499c-0.365,0-0.626-0.167-0.773-0.499l-3.33-7.253c-0.098-0.216-0.101-0.43-0.017-0.65
			c0.076-0.225,0.225-0.386,0.438-0.479c0.213-0.101,0.432-0.106,0.657-0.024c0.218,0.08,0.376,0.234,0.472,0.445l2.553,5.559
			l2.551-5.559c0.096-0.211,0.256-0.365,0.48-0.445C157.451,258.684,157.667,258.689,157.88,258.79"/>
		<path d="M167.017,261.586v0.01c0.088,0.215,0.085,0.43-0.008,0.647c-0.089,0.221-0.246,0.373-0.464,0.458l-4.768,1.912
			c-0.102,0.037-0.207,0.06-0.313,0.06c-0.388,0-0.652-0.182-0.793-0.542c-0.087-0.216-0.086-0.429,0.01-0.648
			c0.09-0.217,0.244-0.371,0.466-0.457l3.865-1.549c-0.562-0.709-1.286-1.061-2.172-1.061c-0.772,0-1.426,0.27-1.963,0.816
			c-0.546,0.539-0.818,1.189-0.818,1.955c0,0.762,0.272,1.416,0.818,1.961c0.538,0.539,1.191,0.81,1.963,0.81
			c0.898,0,1.624-0.356,2.179-1.067c0.147-0.19,0.336-0.295,0.573-0.322c0.231-0.028,0.441,0.031,0.625,0.177
			c0.183,0.14,0.297,0.329,0.329,0.563c0.028,0.236-0.028,0.447-0.177,0.633c-0.897,1.151-2.074,1.729-3.529,1.729
			c-1.236,0-2.293-0.441-3.168-1.314c-0.877-0.877-1.315-1.932-1.315-3.168c0-1.237,0.438-2.287,1.315-3.172
			c0.875-0.869,1.933-1.303,3.168-1.303c0.914,0,1.756,0.264,2.524,0.785c0.771,0.527,1.322,1.221,1.654,2.08L167.017,261.586
			L167.017,261.586z"/>
	</g>
</g>
</svg>
