<svg width="290" height="297" viewBox="0 0 290 297" fill="none" xmlns="http://www.w3.org/2000/svg">
<path opacity="0.1" d="M144.5 291.1C224.25 291.1 288.9 287.25 288.9 282.5C288.9 277.75 224.25 273.9 144.5 273.9C64.7501 273.9 0.100006 277.75 0.100006 282.5C0.100006 287.25 64.7501 291.1 144.5 291.1Z" fill="black"/>
<path d="M248.1 282.6C230.5 282.6 216.2 268.3 216.2 250.7C216.2 233.1 230.5 218.8 248.1 218.8C265.7 218.8 280 233.1 280 250.7C280 268.3 265.7 282.6 248.1 282.6ZM248.1 232.3C238 232.3 229.7 240.6 229.7 250.7C229.7 260.8 238 269.1 248.1 269.1C258.2 269.1 266.5 260.8 266.5 250.7C266.5 240.6 258.2 232.3 248.1 232.3Z" fill="#3A4241"/>
<path d="M243.4 275.9C257.318 275.9 268.6 264.618 268.6 250.7C268.6 236.782 257.318 225.5 243.4 225.5C229.482 225.5 218.2 236.782 218.2 250.7C218.2 264.618 229.482 275.9 243.4 275.9Z" fill="#ABABAB"/>
<path d="M243.6 258.6C247.576 258.6 250.8 255.376 250.8 251.4C250.8 247.424 247.576 244.2 243.6 244.2C239.624 244.2 236.4 247.424 236.4 251.4C236.4 255.376 239.624 258.6 243.6 258.6Z" fill="#9B9B9B"/>
<path d="M243.6 261.6C238 261.6 233.4 257 233.4 251.4C233.4 245.8 238 241.2 243.6 241.2C249.2 241.2 253.8 245.8 253.8 251.4C253.8 257 249.2 261.6 243.6 261.6ZM243.6 247.3C241.3 247.3 239.5 249.1 239.5 251.4C239.5 253.7 241.3 255.5 243.6 255.5C245.9 255.5 247.7 253.7 247.7 251.4C247.7 249.1 245.8 247.3 243.6 247.3Z" fill="#C6C6C6"/>
<path d="M243.4 282.6C225.8 282.6 211.5 268.3 211.5 250.7C211.5 233.1 225.8 218.8 243.4 218.8C261 218.8 275.3 233.1 275.3 250.7C275.3 268.3 261 282.6 243.4 282.6ZM243.4 232.3C233.3 232.3 225 240.6 225 250.7C225 260.8 233.3 269.1 243.4 269.1C253.5 269.1 261.8 260.8 261.8 250.7C261.8 240.6 253.6 232.3 243.4 232.3Z" fill="#222222"/>
<g opacity="0.3">
<path opacity="0.3" d="M279.6 251.8C279.6 232.8 264.4 217.4 245.7 217.4C227 217.4 211.8 232.8 211.8 251.8H279.6Z" fill="black"/>
</g>
<path d="M248.8 202.4C248.8 202.4 275.5 204.7 279.4 209.1L281.3 224.4L248.8 202.4Z" fill="#898989"/>
<path d="M248 201.7C225.2 201.7 206.7 220.2 206.7 243H289.4C289.4 220.2 270.9 201.7 248 201.7Z" fill="#FF4D4D"/>
<path d="M256.2 202.5C253.6 202 250.8 201.7 248 201.7C225.2 201.7 206.7 220.2 206.7 243H223C223 223 237.3 206.3 256.2 202.5Z" fill="#FF4D4D"/>
<path d="M26.5 226.3C26.5 226.3 43.1 180 78.1 179.4H148.1C148.1 179.4 124.4 187.7 124.4 209.7C124.4 231.6 143.4 231.6 154.7 231.6C166 231.6 181.7 231.6 181.7 231.6C181.7 231.6 218.1 235.1 208.8 179.4L196.4 135.5L207.9 140.7L237.8 197.5L236.5 202.2C219.5 207.2 207.1 222.8 203.4 240.4C194.3 244.3 169.8 244.7 147.1 244.7H21.7C21.7 244.6 23.1 233.5 26.5 226.3Z" fill="#FF4D4D"/>
<path d="M72 282.6C54.4 282.6 40.1 268.3 40.1 250.7C40.1 233.1 54.4 218.8 72 218.8C89.6 218.8 103.9 233.1 103.9 250.7C103.9 268.3 89.6 282.6 72 282.6Z" fill="#3A4241"/>
<path d="M67.4 276.1C80.8205 276.1 91.7 265.221 91.7 251.8C91.7 238.379 80.8205 227.5 67.4 227.5C53.9795 227.5 43.1 238.379 43.1 251.8C43.1 265.221 53.9795 276.1 67.4 276.1Z" fill="#ABABAB"/>
<path d="M67.4 282.6C50.4 282.6 36.6 268.8 36.6 251.8C36.6 234.8 50.4 221 67.4 221C84.4 221 98.2 234.8 98.2 251.8C98.2 268.8 84.4 282.6 67.4 282.6ZM67.4 234C57.6 234 49.6 242 49.6 251.8C49.6 261.6 57.6 269.6 67.4 269.6C77.2 269.6 85.2 261.6 85.2 251.8C85.2 242 77.2 234 67.4 234Z" fill="#222222"/>
<path d="M160.5 167.5C160.5 173.1 157.2 177.6 153.1 177.6H101C96.9 177.6 93.6 173.1 93.6 167.5C93.6 161.9 96.7 155.5 100.8 155.5L153 162.8C160.5 163.6 160.5 167.5 160.5 167.5Z" fill="#222222"/>
<path d="M146.6 170.9C145.4 170.9 95.1 170.5 95.1 170.5C94.7 170.5 94.4 170.5 94 170.4C94.9 174.6 97.7 177.6 101.1 177.6H153.2C157.3 177.6 160.6 173.1 160.6 167.6C156.3 170.3 151.8 170.9 146.6 170.9Z" fill="black"/>
<path d="M67.4 258.7C71.2108 258.7 74.3 255.611 74.3 251.8C74.3 247.989 71.2108 244.9 67.4 244.9C63.5892 244.9 60.5 247.989 60.5 251.8C60.5 255.611 63.5892 258.7 67.4 258.7Z" fill="#9B9B9B"/>
<path d="M67.4 261.7C61.9 261.7 57.5 257.3 57.5 251.8C57.5 246.3 61.9 241.9 67.4 241.9C72.9 241.9 77.3 246.3 77.3 251.8C77.3 257.3 72.8 261.7 67.4 261.7ZM67.4 247.8C65.2 247.8 63.4 249.6 63.4 251.8C63.4 254 65.2 255.8 67.4 255.8C69.6 255.8 71.4 254 71.4 251.8C71.4 249.6 69.5 247.8 67.4 247.8Z" fill="#C6C6C6"/>
<g opacity="0.3">
<path opacity="0.3" d="M104.3 251.8C104.3 232.8 89.1 217.4 70.4 217.4C51.7 217.4 36.5 232.8 36.5 251.8H104.3Z" fill="black"/>
</g>
<path d="M98 241.1C98 241.1 158.1 244.7 181.8 238.7C205.5 232.7 211.9 213.1 209.8 187.5C209.8 236.1 181.6 231.6 181.6 231.6C181.6 231.6 165.9 231.6 154.6 231.6C143.3 231.6 124.3 231.6 124.3 209.7C124.3 187.8 148 179.4 148 179.4H78C43 180 26.4 226.3 26.4 226.3C23 233.5 21.7 244.6 21.7 244.6H99.1L98 241.1Z" fill="#B140DB"/>
<path d="M57.7 185.3H43C43 185.3 27.6 192 32.8 199.5C32.8 199.5 39.1 204.2 41.1 201.9L57.7 185.3Z" fill="#FF4D4D"/>
<path d="M47.7 185.3C46.5 187.4 38 198.3 33.7 200.2C35.5 201.4 39.6 203.8 41.1 201.9L57.7 185.3H47.7V185.3Z" fill="#898989"/>
<path d="M100.9 190C57.7 180.8 30.8 224.1 30.8 246.3H111.1C127.2 226 127.3 195.7 100.9 190Z" fill="#FF4D4D"/>
<path d="M101.6 196.6C62.4 188.2 36.5 223.3 32.2 246.4H30.8C30.8 224.2 57.7 180.9 100.9 190.1C115.5 193.2 122 203.8 122.2 216.1C120 206.6 113.5 199.1 101.6 196.6Z" fill="#D66DF7"/>
<path d="M148.1 177.6C135.1 177.6 122 177.6 109 177.6C98.5 177.6 87.8 176.9 77.3 177.6C43.7 180 25.6 214.9 20 244.1C19.6 246.3 23 247.3 23.4 245C28.6 217.8 45.7 182.3 77.9 181.1C101.2 180.2 124.7 181.1 148 181.1C150.4 181.1 150.4 177.6 148.1 177.6Z" fill="#FF4D4D"/>
<path d="M171.7 137.5C172.1 139.1 174 140.1 175.8 139.7L197.7 135.2C199.5 134.8 200.7 133.2 200.2 131.7C199.8 130.1 197.9 129.1 196.1 129.5L174.2 134C172.4 134.3 171.2 135.9 171.7 137.5Z" fill="#4D4D4F"/>
<path d="M171.7 137.5C172.1 139.1 174 140.1 175.8 139.7L197.7 135.2C199.5 134.8 200.7 133.2 200.2 131.7L171.7 137.5Z" fill="#232323"/>
<path d="M219.4 129.8C220.5 136.1 216.2 142.2 209.9 143.3C203.6 144.4 195.5 140.5 194.4 134.1C193.3 127.8 199.6 121.4 205.9 120.3C212.3 119.2 218.3 123.4 219.4 129.8Z" fill="#B140DB"/>
<path d="M206 124.6C200.9 125.5 195.9 129.8 194.6 134.7C194.5 134.5 194.5 134.3 194.4 134C193.3 127.7 199.6 121.3 205.9 120.2C212.2 119.1 218.3 123.4 219.4 129.7C219.6 131.1 219.6 132.5 219.4 133.9C218.2 127.7 212.2 123.6 206 124.6Z" fill="#D66DF7"/>
<path d="M206 120.3C212.3 119.2 218.4 123.5 219.5 129.8C220.6 136.1 216.3 142.2 210 143.3L206 120.3Z" fill="#607778"/>
<path d="M211.3 125.6C213.3 125.6 215.3 125.2 217.1 124.5C218.3 126 219.1 127.8 219.5 129.8C220.6 136.1 216.3 142.2 210 143.3L206.9 125.4C208.3 125.5 209.7 125.6 211.3 125.6Z" fill="#4D4D4F"/>
<path d="M211 120.5C215.2 121.7 218.6 125.2 219.4 129.8C220.2 134.4 218.2 138.8 214.6 141.4L211 120.5Z" fill="#9DF9E1"/>
<path d="M212 126L211 120.5C215.2 121.7 218.6 125.2 219.4 129.8C219.7 131.4 219.6 132.9 219.3 134.4C218.4 130.4 215.5 127.4 212 126Z" fill="#50E3C2"/>
<path d="M192.8 136.8C193 137.9 194.1 138.6 195.4 138.5C196.6 138.4 197.4 137.4 197.3 136.3L196.2 130.3C196 129.2 194.9 128.5 193.6 128.6C192.4 128.7 191.6 129.7 191.7 130.8L192.8 136.8Z" fill="#FC86B4"/>
<path d="M89.4 204C89.4 204.5 89.8 204.9 90.3 204.9H98.1C98.6 204.9 99 204.5 99 204C99 203.5 98.6 203.1 98.1 203.1H90.3C89.7 203.1 89.4 203.5 89.4 204Z" fill="white"/>
<path d="M89.4 228.6C89.4 229.1 89.8 229.5 90.3 229.5H98.1C98.6 229.5 99 229.1 99 228.6C99 228.1 98.6 227.7 98.1 227.7H90.3C89.7 227.7 89.4 228.1 89.4 228.6Z" fill="white"/>
<path d="M82.2 208C82.2 208.5 82.6 208.9 83.1 208.9H104.1C104.6 208.9 105 208.5 105 208C105 207.5 104.6 207.1 104.1 207.1H83.1C82.6 207.2 82.2 207.6 82.2 208Z" fill="white"/>
<path d="M79.7 212.1C79.7 212.6 80.1 213 80.6 213H106.1C106.6 213 107 212.6 107 212.1C107 211.6 106.6 211.2 106.1 211.2H80.6C80.1 211.3 79.7 211.6 79.7 212.1Z" fill="white"/>
<path d="M78.9 216.4C78.9 216.9 79.3 217.3 79.8 217.3H106.9C107.4 217.3 107.8 216.9 107.8 216.4C107.8 215.9 107.4 215.5 106.9 215.5H79.8C79.3 215.5 78.9 215.9 78.9 216.4Z" fill="white"/>
<path d="M80.5 220.3C80.5 220.8 80.9 221.2 81.4 221.2H106.2C106.7 221.2 107.1 220.8 107.1 220.3C107.1 219.8 106.7 219.4 106.2 219.4H81.4C80.9 219.4 80.5 219.8 80.5 220.3Z" fill="white"/>
<path d="M83 224.3C83 224.8 83.4 225.2 83.9 225.2H104C104.5 225.2 104.9 224.8 104.9 224.3C104.9 223.8 104.5 223.4 104 223.4H83.9C83.4 223.5 83 223.9 83 224.3Z" fill="white"/>
<path d="M24.3 174.7L55.7 185.3L69.2 177.3L24.3 174.7Z" fill="#666666"/>
<path d="M90.5 174.7C90.5 176.5 89 177.9 87.1 177.9H7.69998C5.79998 177.9 4.29999 176.5 4.29999 174.7C4.29999 172.9 5.79998 171.5 7.69998 171.5H87.1C89 171.5 90.5 172.9 90.5 174.7Z" fill="#898989"/>
<path d="M87.8 114.3H7.60001V171.5H87.8V114.3Z" fill="#FCD56B"/>
<path d="M80.2 164.1V114.3H87.9V171.5H7.60001V164.1H80.2Z" fill="#EFC354"/>
<path d="M57.1 140.8H54.2V135.1H54.5C56.6 135.1 58.3 133.4 58.3 131.3H56.6C56.6 132.3 56 133.1 55.1 133.3L54 129.8H50.9V127.6H51.2C53.3 127.6 55 125.9 55 123.8H53.3C53.3 124.8 52.7 125.6 51.8 125.8L50.7 122.3H39.2L38.1 125.8C37.2 125.5 36.6 124.7 36.6 123.8H34.9C34.9 125.9 36.6 127.6 38.7 127.6H39V129.8H35.9L34.8 133.3C33.9 133 33.3 132.2 33.3 131.3H31.6C31.6 133.4 33.3 135.1 35.4 135.1H35.7V140.8H32.8V144.1H31.7V149.1H58.5V144.1H57.4V140.8H57.1ZM52.5 140.8H49.1V135.1H52.5V140.8ZM47.5 135.1V140.8H42.2V135.1H47.5ZM49.4 124L50 126H39.7L40.3 124H49.4ZM40.5 127.6H49.1V129.8H40.5V127.6ZM52.7 131.5L53.3 133.5H36.3L36.9 131.5H52.7ZM37.2 135.1H40.6V140.8H37.2V135.1ZM34.2 142.5H55.4V144.2H34.2V142.5ZM56.6 147.4H33.2V145.7H56.6V147.4Z" fill="white"/>
<path d="M170 91.9C170 91.9 163 115 170.7 116.9C178.5 118.8 190.4 107.4 200.8 87L203 78.7C203 78.7 200.1 79.8 195.6 84.2C191.1 88.6 183.4 96.4 179.4 98.9L180.5 86.8L170 91.9Z" fill="#DF9968"/>
<path d="M128.1 125.6C128.1 125.6 123.9 185.1 135.8 215.2L194.9 259L197.1 250.6L151.2 206.2C151.2 206.2 144.3 179.1 147.8 162.6L157 160.5C157 160.5 158.9 236.9 162.7 279.9H171.1C171.1 279.9 179.5 159.4 174.5 132.7C169.6 106.2 128.1 125.6 128.1 125.6Z" fill="#BFBFBF"/>
<path d="M158.8 213.6L165.8 219.4C164.6 190.6 163.5 159.4 163.5 159.4L157 160.6C157.1 165.8 157.9 192.2 158.8 213.6Z" fill="#969696"/>
<path d="M164.9 231.6C164.8 233.3 167 236.6 166.9 238.3L194.9 259.1L196 254.8L164.9 231.6Z" fill="#969696"/>
<path d="M166.6 232.8L142.8 215.2C130.9 185.1 135.1 125.6 135.1 125.6C135.1 125.6 147.1 120 158.9 118.9C145.3 117.5 128.1 125.6 128.1 125.6C128.1 125.6 123.9 185.1 135.8 215.2L159.6 232.8C160.4 249.5 161.4 266.4 162.6 279.9H169.6C168.4 266.4 167.4 249.6 166.6 232.8Z" fill="#969696"/>
<path d="M162.6 280V286.3C162.6 286.3 178.8 295.3 190.7 296.8C190.7 296.8 192.5 288.4 171.9 282.6L171 279.9H162.6V280Z" fill="#FC86B4"/>
<path d="M169.9 280H162.6V286.3C162.6 286.3 167 288.7 172.9 291.3C171.1 287.9 170.1 284.1 169.9 280Z" fill="#F473A7"/>
<path d="M162.6 284.4V286.3C162.6 286.3 178.8 295.3 190.7 296.8C190.7 296.8 190.9 296 190.5 294.8C178.7 293.3 162.6 284.4 162.6 284.4Z" fill="#EF599D"/>
<path d="M196.6 252.6L208.5 261.3C208.5 261.3 205.2 278.2 200 280H187.1C187.1 280 186.9 274.9 195.7 272.5L198.7 260.2L195.4 257.7L196.6 252.6Z" fill="#F473A7"/>
<path d="M197.9 263.2C201.1 265.2 203.8 267.8 205.9 270.9C207.6 266.1 208.5 261.3 208.5 261.3L196.6 252.6L195.3 257.6L198.6 260.1L197.9 263.2Z" fill="#FC86B4"/>
<path d="M207.1 260.3C206.6 262.6 203.5 277.1 198.6 278.7H187.2C186.9 279.5 187 280 187 280H200C205.3 278.3 208.5 261.3 208.5 261.3L207.1 260.3Z" fill="#EF599D"/>
<path d="M127.7 140.1C127.7 140.1 154.1 150.6 177.2 145.1C177.2 145.1 167.9 101.6 174 76C174 76 151.1 56.1 130.5 68.9C130.6 68.9 118.5 79.3 127.7 140.1Z" fill="#FF4D4D"/>
<path d="M160.9 124.4C151.1 121.1 142.9 114.7 137.6 106.4C133.3 101.2 130.4 95.8 130.3 88.7C130.2 86.1 130.6 83.5 131.3 81C132 75.1 134.8 69.7 138.9 65.5C136.1 66.2 133.4 67.3 130.6 69C130.6 69 118.5 79.4 127.8 140.1C127.8 140.1 154.2 150.6 177.3 145.1C177.3 145.1 175.6 136.9 174.1 125.5C169.4 126 164.8 125.6 160.9 124.4Z" fill="#FF4D4D"/>
<path d="M102.8 152.8C106.3 155.1 103.5 154.8 105.4 158.4C105.8 158.1 114.2 155 114.4 154.5C119.8 143.2 127.4 80.7 127.4 80.7C127.4 80.7 126.1 79.3 126.1 78.2C124.4 78.3 122.7 78.4 120.9 78.4C120.1 78.4 126.9 68 126.1 67.9C126.1 68.7 117 68.7 115.5 80.1C109.4 126.9 111 153.1 102.8 152.8Z" fill="#F2B07D"/>
<path d="M126.2 78.3C124.5 78.4 122.8 78.5 121 78.5C120.2 78.5 127 68.1 126.2 68C126.2 68.6 121.3 68.7 118.1 73.2C120.5 71.7 122.8 71.5 122.8 71.1C123.6 71.2 116.8 81.6 117.6 81.6C119.4 81.6 121.1 81.5 122.8 81.4C122.8 82.4 124.1 83.9 124.1 83.9C124.1 83.9 117.2 140.8 111.8 155.8C113.2 155.2 114.3 154.7 114.4 154.5C119.8 143.2 127.4 80.7 127.4 80.7C127.4 80.7 126.2 79.3 126.2 78.3Z" fill="#DE9361"/>
<path d="M103.4 152.7C103.2 152.7 103 152.8 102.8 152.7C103 152.8 103.1 152.9 103.3 153C103.3 153 103.4 152.9 103.4 152.7Z" fill="#DE9361"/>
<path d="M139 58.7C139 58.7 127 54.9 120.2 63.7C117.2 68 113.3 70.6 111.7 87.2C111.7 87.2 116.6 92.5 127 92.4L130.9 83.6L167.5 84.1L170.2 95.8L182 90.9C182 90.9 186.8 72.3 171.1 67.3C164.2 65.1 139 58.7 139 58.7Z" fill="#FF4D4D"/>
<path d="M130.3 82.4C130.4 73.4 132.2 65.7 135.1 57.9C131 57.5 124.6 58 120.2 63.6C117.2 67.9 113.3 70.5 111.7 87.1C111.7 87.1 116.6 92.4 127 92.3L130.3 84.8C130.3 84.1 130.3 83.3 130.3 82.4Z" fill="#FF4D4D"/>
<path d="M103.8 152.6C103.8 152.6 94.5 153.3 94.7 159.1C94.7 159.1 95.7 166.9 96.7 165.6C96.7 165.6 98.3 165.1 97.6 159.1C97.6 159.1 97.4 166.9 100.6 166.9C101.7 166.9 101.3 159.1 101.3 159.1C101.3 159.1 101.9 166.9 104.9 166.9C106.3 166.9 105.3 159.2 105.3 159.2C105.3 159.2 113.8 159.3 114.4 154.5C115.1 149.8 103.8 152.6 103.8 152.6Z" fill="#F2B07D"/>
<path d="M113.1 152.3C109.9 155.9 102.8 156.6 98.7 156.6C97.8 156.6 96.7 156.5 95.6 156.3C95 157.1 94.7 158.1 94.7 159.3C94.7 159.3 95.7 167.1 96.7 165.8C96.7 165.8 97.7 165.5 97.7 162.3C98 164.5 98.7 167 100.5 167.1C101.6 167.1 101.2 159.3 101.2 159.3C101.2 159.3 101.8 167.1 104.8 167.1C106.2 167.1 105.2 159.4 105.2 159.4C105.2 159.4 113.7 159.5 114.3 154.7C114.6 153.4 114 152.7 113.1 152.3Z" fill="#DE9361"/>
<path d="M189.5 95.9L188.7 83.3L215.5 81.6L216.3 94.3H215.6L214.8 82.5L189.5 84L190.2 95.9H189.5Z" fill="#6D6D6D"/>
<path d="M188.6 94.6L217 92.8L213.2 115.2L195.2 116.4L188.6 94.6Z" fill="#FCD56B"/>
<path d="M139.6 58.8C139.6 58.8 138 71.5 150.8 72.4C163.6 73.4 160.7 64.2 160.7 64.2L139.6 58.8Z" fill="#F2B07D"/>
<path d="M138.5 25C134.2 39.2 140.5 54.1 152.7 57.2C166.7 60.8 178.1 52.3 182.3 38.1C186.6 23.9 180.2 9.50001 168.1 5.90001C156 2.30001 142.8 10.8 138.5 25Z" fill="#F2B07D"/>
<path d="M143.6 40.4C143.9 37.8 144.6 35.1 145.4 32.6C146.2 30.1 147.7 27.8 149.1 25.6C151.3 22.6 154.1 20.3 157.5 18.7C159.3 18.2 161.2 17.6 163 17.1C168.6 16.2 174.3 17.6 178.9 20.9C180.6 22.2 182.1 23.7 183.4 25.4C182.1 16.2 176.5 8.50001 168.1 5.90001C156 2.30001 142.7 10.8 138.5 25C134.9 36.8 138.7 49.2 147.2 54.8C144.4 50.7 142.9 45.6 143.6 40.4Z" fill="#DE9361"/>
<path d="M146.7 54.6L144.7 64.6L154.4 67.9L156.4 58.3C152.7 58.2 149.4 56.8 146.7 54.6Z" fill="#DE9361"/>
<path d="M151.7 60.6C149.6 60.6 147.6 60.2 145.7 59.4L144.6 64.6L154.3 67.9L155.9 60.4C154.6 60.6 153.2 60.6 151.7 60.6Z" fill="#F2B07D"/>
<path d="M137.2 36.5C138.1 39.5 139.3 42.4 140.7 45.1C141.1 45.8 141.4 46.4 141.8 47.1C142.2 47.7 142.6 48.4 143 49C143.2 49.3 143.4 49.6 143.7 49.9C143.9 50.2 144.2 50.5 144.4 50.7C144.9 51.3 145.4 51.8 145.9 52.3L146.7 53L147.5 53.7C148.1 54.1 148.7 54.5 149.3 54.8C149.6 55 149.9 55.1 150.2 55.3C150.5 55.4 150.8 55.6 151.2 55.7L152.2 56.1L153.2 56.4C153.5 56.5 153.9 56.6 154.2 56.6C154.6 56.7 154.9 56.7 155.3 56.8C156 56.9 156.7 56.9 157.5 56.9C158.2 56.9 158.9 56.8 159.7 56.8C160.4 56.7 161.2 56.6 161.9 56.5H161.8L164 55.8L165.1 55.5C165.5 55.4 165.8 55.2 166.2 55.1L168.3 54.3C169 53.9 169.6 53.6 170.3 53.3C170.7 53.1 170.9 52.9 171.3 52.7L172.2 52.1C172.5 51.9 172.8 51.6 173.1 51.4C173.4 51.2 173.7 50.9 174 50.7C174.3 50.4 174.5 50.1 174.8 49.9C175.1 49.6 175.3 49.3 175.6 49L177.2 47.2C176.9 47.9 176.5 48.6 176.1 49.3C175.9 49.7 175.7 50 175.5 50.4C175.3 50.7 175.1 51.1 174.8 51.4C174.6 51.7 174.3 52 174 52.4C173.7 52.7 173.5 53.1 173.2 53.3L172.3 54.1C172 54.4 171.7 54.7 171.3 54.9C170.6 55.4 170 55.9 169.3 56.3L167.1 57.4C166.7 57.6 166.4 57.8 166 57.9L164.9 58.4L162.6 59.3H162.5C161.7 59.4 160.9 59.6 160.1 59.7C159.3 59.8 158.5 59.9 157.6 59.9C157.2 59.9 156.8 59.9 156.3 59.9L155 59.8C154.6 59.8 154.2 59.7 153.7 59.6C153.3 59.5 152.9 59.5 152.5 59.3L151.3 59L150.1 58.6C149.7 58.5 149.3 58.2 148.9 58.1C148.5 57.9 148.1 57.7 147.8 57.5C147.1 57.1 146.4 56.6 145.7 56.1L144.7 55.3C144.4 55 144.1 54.7 143.8 54.4C143.2 53.8 142.7 53.2 142.2 52.5C141.9 52.2 141.7 51.8 141.5 51.5C141.3 51.2 141.1 50.8 140.9 50.5C140.5 49.8 140.1 49.1 139.8 48.3C139.5 47.6 139.2 46.8 138.9 46.1C138.6 45.3 138.4 44.6 138.2 43.8C138 43 137.8 42.3 137.7 41.5C137.5 40.7 137.4 39.9 137.3 39.2C137.3 38.1 137.2 37.3 137.2 36.5Z" fill="#A7714C"/>
<path d="M148.6 54.3C148.3 54.1 147.9 53.9 147.6 53.6L146.8 52.9L146 52.2C145.5 51.7 145 51.2 144.5 50.6C144.3 50.3 144 50.1 143.8 49.8C143.6 49.5 143.3 49.2 143.1 48.9C142.7 48.3 142.2 47.7 141.9 47C141.5 46.4 141.1 45.7 140.8 45C139.4 42.3 138.2 39.4 137.3 36.4C137.3 37.2 137.4 38 137.5 38.8C137.6 39.6 137.7 40.4 137.9 41.1C138.1 41.9 138.2 42.7 138.4 43.4C138.6 44.2 138.9 44.9 139.1 45.7C139.4 46.5 139.7 47.2 140 47.9C140.4 48.6 140.7 49.4 141.1 50.1C141.3 50.5 141.5 50.8 141.7 51.1C141.9 51.4 142.1 51.8 142.4 52.1C142.9 52.8 143.4 53.4 144 54C144.3 54.3 144.6 54.6 144.9 54.9L145.9 55.7C146.6 56.2 147.2 56.7 148 57.1C148.4 57.3 148.7 57.5 149.1 57.7C149.3 57.8 149.5 57.9 149.7 58C149.2 57 148.8 55.6 148.6 54.3Z" fill="#714329"/>
<path d="M187.4 27.5C187.6 15.5 180.5 4.80001 169.1 1.60001C155 -2.29999 139.5 6.80001 134.4 22.1C134.4 22.1 131.4 31.6 134.4 40.3C134.4 40.3 140.4 32.8 143.6 24.8L154.7 21.2L171.5 27.5L175.7 35.4C174.6 39.2 173.7 45 177.2 49.6C177.2 49.6 188.7 40.3 187.4 27.5Z" fill="#FF4D4D"/>
<path d="M136.1 42C137.5 40.4 138.7 38.6 139.9 36.9C142.4 33.2 143.9 29.1 146.1 25.3C148.3 21.5 158 24.2 161 25C164 25.9 166.9 27.2 169.5 28.9C170.5 29.6 174.3 32.8 173.8 34.1C171.5 39.8 171.8 46.5 175.7 51.4C177.5 53.8 180.8 50.4 179 48.1C174.5 42.3 180.2 36.3 177.2 30.3C174.4 24.8 167.2 21.9 161.6 20.3C156.3 18.8 149.2 17.8 144.3 20.9C141.4 22.7 140.6 26.8 139.1 29.6C137.4 32.8 135.3 35.9 133 38.7C130.9 41 134.2 44.3 136.1 42Z" fill="#E47676"/>
<path d="M178.9 48C174.4 42.2 180.1 36.2 177.1 30.2C174.3 24.7 167.1 21.8 161.5 20.2C159.3 19.6 156.7 19 154.1 18.8C154.3 20.4 154.4 21.9 154.3 23.4C157.1 23.8 159.7 24.5 161.1 24.9C164.1 25.8 167 27.1 169.6 28.8C170.6 29.5 174.4 32.7 173.9 34C171.6 39.7 171.9 46.4 175.8 51.3C177.4 53.6 180.7 50.3 178.9 48Z" fill="#F88989"/>
<path d="M144.7 32.4C144.8 31.3 145.4 30.2 146.4 29.5C147.4 28.8 148.7 28.5 149.9 28.7C151.1 28.8 152.5 29.7 152.9 30.9C153.4 32.1 153.2 33.3 152.7 34.3C152.4 33.2 152.1 32.3 151.6 31.7C151.1 31.1 150.5 30.8 149.7 30.7C148.9 30.6 148.1 30.6 147.3 30.9C146.3 31.2 145.5 31.7 144.7 32.4Z" fill="black"/>
<path d="M162.1 36.4C162.3 35.3 163 34.3 164 33.7C165 33 166.4 32.9 167.6 33.2C168.8 33.5 170 34.4 170.4 35.7C170.8 36.9 170.5 38.1 169.9 39C169.7 37.9 169.5 37 169 36.3C168.6 35.6 167.9 35.3 167.2 35.1C166.4 34.9 165.6 34.8 164.8 35.1C163.9 35.3 163 35.8 162.1 36.4Z" fill="black"/>
<path d="M208.2 105.3L207 105.4L206.9 103.1H207C207.8 103.1 208.5 102.4 208.5 101.5H207.8C207.8 101.9 207.6 102.2 207.2 102.3L206.7 100.9L205.4 101V100.1H205.5C206.3 100.1 207 99.4 207 98.5H206.3C206.3 98.9 206.1 99.2 205.7 99.3L205.2 97.9L200.6 98.1L200.2 99.5C199.8 99.4 199.6 99.1 199.6 98.7H198.9C198.9 99.5 199.6 100.2 200.5 100.2H200.6V101.1L199.3 101.2L198.9 102.6C198.5 102.5 198.3 102.2 198.3 101.8H197.6C197.6 102.6 198.3 103.3 199.2 103.3H199.3L199.4 105.6L198.2 105.7L198.3 107H197.9L198 109L208.8 108.5L208.7 106.5H208.3L208.2 105.3ZM206.4 105.4L205 105.5L204.9 103.2L206.3 103.1L206.4 105.4ZM204.2 103.2L204.3 105.5L202.1 105.6L202 103.3L204.2 103.2ZM204.8 98.6L205.1 99.4L201 99.6L201.2 98.8L204.8 98.6ZM201.3 100.3L204.8 100.1V101L201.3 101.2V100.3ZM206.3 101.6L206.6 102.4L199.7 102.7L199.9 101.9L206.3 101.6ZM200 103.4L201.4 103.3L201.5 105.6L200.1 105.7L200 103.4ZM199 106.4L207.6 106V106.7L199 107.1V106.4ZM208.1 108L198.6 108.4V107.7L208.1 107.3V108Z" fill="white"/>
<path d="M144.7 26.7C144.7 26.7 147.2 20.4 155.8 24.3L154.1 26.5C154.1 26.5 150.2 24.8 144.7 26.7Z" fill="black"/>
<path d="M173 33.9C173 33.9 173.6 27.2 164.2 26.8L164.8 29.5C164.7 29.4 168.9 29.7 173 33.9Z" fill="black"/>
<path d="M160 36.3C160 36.3 159.7 39.9 162.3 39.9C164.9 39.9 163.9 43.9 160.7 43.8C157.5 43.7 156.6 38.5 157.3 36.8C158.1 35.2 160.3 34 160 36.3Z" fill="#DE9361"/>
<path d="M145.9 41.3C145.9 41.3 157.3 48.2 165.7 46.6C165.7 46.6 162.2 50.8 155.8 49.6C147.7 48.2 145.9 41.3 145.9 41.3Z" fill="white"/>
<path d="M150.2 49.8C151.8 50.3 153.4 50.9 155 51.2C155.8 51.4 156.6 51.5 157.4 51.6C158.2 51.6 159 51.6 159.8 51.4C159.2 52 158.3 52.3 157.4 52.4C156.5 52.5 155.6 52.4 154.8 52.2C154 52 153.1 51.7 152.4 51.3C151.6 50.9 150.9 50.4 150.2 49.8Z" fill="#DE9361"/>
<path d="M196.3 83.7C196.3 83.7 197.2 86.8 198.4 87.6C201.1 89.3 206.3 87.4 206 84.9C205.8 82.4 196.3 83.7 196.3 83.7Z" fill="#DF9968"/>
<path d="M210.4 79C210.2 79 209.3 78.9 208.5 78.9C208.4 78.9 208.4 78.9 208.3 78.9C204.7 78.5 201.8 78.2 199.9 79.7C198 81.2 197 82.8 197 82.8C202.9 82 200.6 87 200.6 87C199.4 91.5 203.4 88.4 203.4 88.4C205.3 90.4 206.7 88.1 206.7 88.1C207.4 89.3 208.4 89.1 209.1 88.1C209.4 88.2 209.1 88 209.1 88.1C211.5 91.8 216.3 80.1 210.4 79Z" fill="#F2B07D"/>
</svg>
