<svg width="374" height="354" viewBox="0 0 374 354" fill="none" xmlns="http://www.w3.org/2000/svg">
<path d="M174.9 28L278.2 28.5C291.9 28.5 302.8 40.2 301.9 54L285.1 291.8C284.2 304.1 274 313.6 261.7 313.6H156.7C143 313.6 132.2 302.1 133.3 288.4L151.1 50.1C152 37.7 162.4 28 174.9 28Z" fill="#F1F2FF"/>
<path d="M174.9 28L278.2 28.5C291.9 28.5 302.8 40.2 301.9 54L285.1 291.8C284.2 304.1 274 313.6 261.7 313.6H156.7C143 313.6 132.2 302.1 133.3 288.4L151.1 50.1C152 37.7 162.4 28 174.9 28Z" fill="#D7DDFB"/>
<path d="M163.4 28L266.7 28.5C280.4 28.5 291.3 40.2 290.4 54L273.6 291.7C272.7 304 262.5 313.5 250.2 313.5H145.2C131.5 313.5 120.7 302 121.8 288.3L139.6 50.1C140.5 37.7 150.7 28 163.4 28Z" fill="#CCD5E2"/>
<path d="M155.6 49.8H273.6L259.3 276.6L140.9 277.6L155.6 49.8Z" fill="white"/>
<path d="M225.4 41.4H205.6C204.5 41.4 203.6 40.5 203.6 39.4C203.6 38.3 204.5 37.4 205.6 37.4H225.4C226.5 37.4 227.4 38.3 227.4 39.4C227.4 40.5 226.4 41.4 225.4 41.4Z" fill="#8592C8"/>
<path d="M259.2 108.3H163.4C160.9 108.3 158.9 106.3 159 103.8L160.2 77.8C160.4 75.5 162.2 73.6 164.6 73.6H260.4C262.9 73.6 264.9 75.6 264.8 78.1L263.6 104.1C263.4 106.5 261.5 108.3 259.2 108.3Z" fill="#9DF9E1"/>
<path d="M223.8 82.4H169.3C169 82.4 168.7 82.1 168.7 81.8C168.7 81.5 169 81.2 169.3 81.2H223.8C224.1 81.2 224.4 81.5 224.4 81.8C224.4 82.1 224.1 82.4 223.8 82.4Z" fill="white"/>
<path d="M223.3 91.1H168.8C168.5 91.1 168.2 90.8 168.2 90.5C168.2 90.2 168.5 89.9 168.8 89.9H223.3C223.6 89.9 223.9 90.2 223.9 90.5C223.9 90.8 223.6 91.1 223.3 91.1Z" fill="white"/>
<path d="M195.3 99.8H168.3C168 99.8 167.7 99.5 167.7 99.2C167.7 98.9 168 98.6 168.3 98.6H195.3C195.6 98.6 195.9 98.9 195.9 99.2C195.9 99.5 195.6 99.8 195.3 99.8Z" fill="white"/>
<path d="M255.7 157.5H159.9C157.4 157.5 155.4 155.5 155.5 153L156.7 127C156.9 124.7 158.7 122.8 161.1 122.8H256.9C259.4 122.8 261.4 124.8 261.3 127.3L260.1 153.3C259.9 155.6 258.1 157.5 255.7 157.5Z" fill="#FCD56B"/>
<path d="M220.4 131.6H165.9C165.6 131.6 165.3 131.3 165.3 131C165.3 130.7 165.6 130.4 165.9 130.4H220.4C220.7 130.4 221 130.7 221 131C221 131.3 220.7 131.6 220.4 131.6Z" fill="white"/>
<path d="M219.9 140.3H165.4C165.1 140.3 164.8 140 164.8 139.7C164.8 139.4 165.1 139.1 165.4 139.1H219.9C220.2 139.1 220.5 139.4 220.5 139.7C220.5 140 220.2 140.3 219.9 140.3Z" fill="white"/>
<path d="M191.9 148.9H165C164.7 148.9 164.4 148.6 164.4 148.3C164.4 148 164.7 147.7 165 147.7H191.9C192.2 147.7 192.5 148 192.5 148.3C192.5 148.7 192.3 148.9 191.9 148.9Z" fill="white"/>
<path d="M155.6 49.8L140.9 277.6H138.4L153.1 49.8H155.6Z" fill="#A9B1D4"/>
<path d="M117.4 26.3C119.7 23.5 121.1 19.9 121.1 16C121.1 7.1 113.9 0 105.1 0H70.2C61.3 0 54.2 7.2 54.2 16C54.2 24.8 61.4 32 70.2 32H104.9C107.5 32 109.9 31.4 112.1 30.3L120.2 34.7L117.4 26.3Z" fill="#FC86B4"/>
<path d="M99.7 19.4C101.578 19.4 103.1 17.8778 103.1 16C103.1 14.1222 101.578 12.6 99.7 12.6C97.8222 12.6 96.3 14.1222 96.3 16C96.3 17.8778 97.8222 19.4 99.7 19.4Z" fill="white"/>
<path d="M87.7 19.4C89.5778 19.4 91.1 17.8778 91.1 16C91.1 14.1222 89.5778 12.6 87.7 12.6C85.8222 12.6 84.3 14.1222 84.3 16C84.3 17.8778 85.8222 19.4 87.7 19.4Z" fill="white"/>
<path d="M75.7 19.4C77.5778 19.4 79.1 17.8778 79.1 16C79.1 14.1222 77.5778 12.6 75.7 12.6C73.8222 12.6 72.3 14.1222 72.3 16C72.3 17.8778 73.8222 19.4 75.7 19.4Z" fill="white"/>
<path d="M313.7 215.4L309.9 229.9L353.7 232.4L352.3 214.2L313.7 215.4Z" fill="#464646"/>
<path d="M331.6 224.9L318.8 267.9L319.1 333L303.5 333.3L300.6 267L311 226L331.6 224.9Z" fill="#464646"/>
<path opacity="0.44" d="M329.9 231L319.7 230.1L327.1 240.2L329.9 231Z" fill="#C8C8C8"/>
<path d="M353.7 229.4L356.7 269.8L369 336.4L353.5 339.6L338.6 271.5L333.5 225.1L353.7 229.4Z" fill="#464646"/>
<path d="M308.1 333H316.5L316.7 345.1L292.6 345.3C292.8 343.4 294 341.9 295.9 341.4L307.9 338.4L308.1 333Z" fill="#FCD56B"/>
<path d="M316.712 345.129L292.612 345.288L292.624 347.188L316.724 347.029L316.712 345.129Z" fill="#FCD56B"/>
<path d="M312.131 340.108C313.18 340.101 314.025 339.245 314.018 338.196C314.011 337.147 313.155 336.301 312.106 336.308C311.056 336.315 310.211 337.172 310.218 338.221C310.225 339.27 311.081 340.115 312.131 340.108Z" fill="#FCD56B"/>
<path d="M357.9 337.8L366.3 336.7L368 348.7L344.2 351.8C344.2 349.9 345.3 348.2 347 347.6L358.5 343.2L357.9 337.8Z" fill="#FCD56B"/>
<path d="M368.044 348.714L344.154 351.881L344.403 353.764L368.294 350.597L368.044 348.714Z" fill="#FCD56B"/>
<path d="M362.823 344.171C363.864 344.034 364.595 343.079 364.457 342.038C364.319 340.998 363.364 340.267 362.324 340.404C361.284 340.542 360.552 341.497 360.69 342.538C360.828 343.578 361.783 344.309 362.823 344.171Z" fill="#FCD56B"/>
<path d="M295.9 193.1C295.7 193.1 295.6 193.1 295.4 193.1L255.8 187.2L257.7 174.3L293.1 179.6C300.1 168.9 310.9 156.4 310.9 156.4C310.7 156.6 311.4 157 310.9 156.4L323.4 157.6C324 160.7 321.2 160.7 301.7 190.2C300.6 192.2 298.3 193.3 295.9 193.1Z" fill="#9DF9E1"/>
<path d="M333.1 153L334.3 153.2C339.9 154.1 344.4 158.3 345.8 163.9L354.8 215.5C335.5 225.9 311.2 215.7 311.2 215.7L306.5 167.6C305.9 162.3 308.7 157.2 313.4 154.8L333.1 153Z" fill="#9DF9E1"/>
<path d="M328.8 157.6L317.9 156.7L319.7 132.1L330.5 133L328.8 157.6Z" fill="#EBB28B"/>
<path d="M315.2 154.5L331.7 153.1C331.7 153.1 331.5 162.8 321.6 162.6C312.6 162.5 315.2 154.5 315.2 154.5Z" fill="#EBB28B"/>
<path d="M256.606 180.584C257.251 176.772 254.684 173.159 250.873 172.514C247.061 171.869 243.447 174.436 242.802 178.248C242.157 182.059 244.724 185.673 248.536 186.318C252.348 186.963 255.961 184.396 256.606 180.584Z" fill="white"/>
<path d="M260.4 184.9L253.2 183.7C251.3 183.4 250.1 181.5 250.4 179.7C250.7 177.8 252.6 176.6 254.4 176.9L261.6 178.1C263.5 178.4 264.7 180.3 264.4 182.1C264 183.9 262.3 185.2 260.4 184.9Z" fill="white"/>
<path d="M276.636 186.76C277.405 175.631 269.007 165.985 257.877 165.215C246.748 164.446 237.102 172.844 236.333 183.974C235.563 195.103 243.962 204.749 255.091 205.518C266.22 206.288 275.866 197.89 276.636 186.76Z" fill="#FC86B4"/>
<path d="M252.9 193.1C252.4 193.1 252.1 192.9 251.8 192.6L244.9 185.9C244.1 185.1 244.1 184 244.9 183.4C245.7 182.6 246.8 182.6 247.4 183.4L253 189L265.9 178.6C266.7 178 267.8 178.1 268.4 178.9C269 179.7 268.9 180.8 268.1 181.4L253.9 192.8C253.9 193.1 253.4 193.1 252.9 193.1Z" fill="#F2F7FF"/>
<path d="M316 148.6C308.7 148.1 303.1 141.7 303.5 134.4L304.6 117.9L331.2 119.8L330.1 136.3C329.7 143.6 323.3 149.1 316 148.6Z" fill="#F0BC99"/>
<path d="M330.3 131.8L326.6 131.6C325.5 131.6 324.9 130.5 325 129.6C325.6 127 326.6 122.3 324.8 121.5C322.3 120.6 308.4 123.2 304.1 119.5C297.9 114.2 303 106.4 308.9 106.6C314.8 106.6 313.6 113.3 320.4 113.6C327.2 113.9 337.8 111.9 332.2 129.8L330.3 131.8Z" fill="#2F282F"/>
<path d="M335.007 132.925C335.167 130.611 333.421 128.605 331.107 128.445C328.793 128.285 326.787 130.031 326.627 132.345C326.467 134.659 328.213 136.665 330.528 136.825C332.842 136.985 334.847 135.239 335.007 132.925Z" fill="#F0BC99"/>
<path d="M282.927 198.02C283.194 194.163 280.284 190.82 276.427 190.553C272.57 190.287 269.228 193.197 268.961 197.054C268.694 200.911 271.605 204.253 275.461 204.52C279.318 204.787 282.661 201.876 282.927 198.02Z" fill="#F0AF74"/>
<path d="M287.2 201.9L279.9 201.4C278 201.2 276.5 199.5 276.6 197.7C276.8 195.8 278.5 194.3 280.3 194.4L287.6 194.9C289.5 195.1 291 196.8 290.9 198.6C290.8 200.5 289.2 202 287.2 201.9Z" fill="#F0AF74"/>
<path d="M283.3 204.5V191.4H319.3L331.6 162C333.2 158.7 336.9 157.3 340.3 158.7C343.6 160.3 345 164 343.6 167.4L329.4 200.6C328.3 202.9 326 204.5 323.5 204.5H283.3Z" fill="#9DF9E1"/>
<path d="M321 326.5H301.5V333.4H321V326.5Z" fill="#4F5977"/>
<path d="M369.741 329.984L350.606 333.736L351.934 340.507L371.069 336.755L369.741 329.984Z" fill="#4F5977"/>
<path d="M306.2 136.8L317.7 137.4C317.7 137.4 317.1 141.8 310.8 141.1C305.9 140.5 306.2 136.8 306.2 136.8Z" fill="white"/>
<path d="M310.4 204.5H322.1C325.4 204.3 328.2 202.3 329.6 199.4L342.5 170.1C337.5 187.2 331 204.5 331 204.5C330.2 206.7 328 208.2 325.7 208.1L310.7 207.5L310.4 204.5Z" fill="#50E3C2"/>
<path opacity="0.12" d="M240 226.3L151.5 238C149.8 238.2 148.4 237.1 148.1 235.4L144.8 210C144.6 208.3 145.7 206.9 147.4 206.6L235.9 194.9C237.6 194.7 239 195.8 239.3 197.5L242.7 222.9C242.8 224.4 241.6 226 240 226.3Z" fill="#B8B8B8"/>
<path d="M233.8 215.9L145.3 227.6C143.6 227.8 142.2 226.7 141.9 225L138.5 199.6C138.3 197.9 139.4 196.5 141.1 196.2L229.6 184.5C231.3 184.3 232.7 185.4 233 187.1L236.4 212.5C236.6 214.2 235.5 215.7 233.8 215.9Z" fill="#D66DF7"/>
<path d="M147.6 203.6C147.3 203.6 147 203.4 147 203.1C147 202.8 147.2 202.5 147.5 202.5L196.7 196C197 196 197.3 196.2 197.3 196.5C197.3 196.8 197.1 197.1 196.8 197.1L147.6 203.6Z" fill="white"/>
<path d="M148.6 211.4C148.3 211.4 148 211.2 148 210.9C148 210.6 148.2 210.3 148.5 210.3L197.7 203.8C198 203.8 198.3 204 198.3 204.3C198.3 204.6 198.1 204.9 197.8 204.9L148.6 211.4C148.6 211.4 148.7 211.4 148.6 211.4Z" fill="white"/>
<path d="M149.7 219.3C149.4 219.3 149.1 219.1 149.1 218.8C149.1 218.5 149.3 218.2 149.6 218.2L173.9 214.9C174.2 214.9 174.5 215.1 174.5 215.4C174.5 215.7 174.3 216 174 216L149.7 219.3Z" fill="white"/>
<path d="M114.1 325.2L106.5 324.6L105.4 337.2L127.4 338.9L127.6 337.2C127.6 335.5 126.5 333.9 124.8 333.5L114.1 330.1V325.2Z" fill="#D66DF7"/>
<path d="M14.3 320.7L13.5 313.1L0.900024 314L3.09998 336L4.79999 335.8C6.49999 335.5 7.80002 334.1 7.90002 332.4L9.5 321.3L14.3 320.7Z" fill="#D66DF7"/>
<path d="M46.1 263.2L60.1 308.2L11.3 311.2L12.7 322.9L72.2 320.9C77.5 320.7 81.5 316.7 80.5 310.6L77.2 277.1L108.7 276.6L103.2 326.3L116.8 326.8L130 270.9C131.6 264 126.6 257.5 119.6 257.3L87.7 256.5L46.1 263.2Z" fill="#FC86B4"/>
<path d="M66.2 210.7L78.2 213.2L83.3 187.8L71.5 185.4L66.2 210.7Z" fill="#EBB28B"/>
<path d="M75.7 201.1C82.4 202.5 89.1 198.1 90.5 191.4L93.6 176.3L69.3 171.2L66.2 186.3C64.6 193.1 69 199.7 75.7 201.1Z" fill="#F0BC99"/>
<path d="M84.7 182.9L82.4 194C81.5 198.5 77.3 201.3 73.1 200.4L70.9 199.9C63.6 198.3 58.9 190.9 60.6 183.1L62.8 173L85.7 177.8L84.7 182.9Z" fill="#464646"/>
<path d="M83.8 181.1C83.8 181.1 89.6 182.7 93.1 182.7C97.8 182.7 100.7 177.4 97.8 173.7C97.6 173.5 97.5 173.4 97.3 173.2C93.7 169.3 87.5 171.2 87.5 171.6C87.7 172.1 83.8 181.1 83.8 181.1Z" fill="#464646"/>
<path d="M91.2 174.8C91.2 174.8 84.2 164.5 72 167.5C72 167.5 67.3 167.2 62.5 173.1L82.9 182.8L91.2 174.8Z" fill="#464646"/>
<path d="M86.7342 189.227C87.1418 187.281 85.8946 185.373 83.9485 184.965C82.0024 184.557 80.0944 185.805 79.6868 187.751C79.2792 189.697 80.5264 191.605 82.4725 192.012C84.4186 192.42 86.3266 191.173 86.7342 189.227Z" fill="#F0BC99"/>
<path d="M74.3641 166.009C75.7001 159.63 71.6121 153.376 65.2333 152.04C58.8545 150.704 52.6004 154.792 51.2645 161.171C49.9285 167.55 54.0165 173.804 60.3953 175.14C66.7741 176.476 73.0282 172.388 74.3641 166.009Z" fill="#464646"/>
<path d="M87.8 256.1C83.3 248.8 85.5 232 87.3 221.8C88.2 216.8 85.9 211.8 81.7 209.2L67.8 205.2C64.4 204 59.9 208 57.4 210.7C35.4 234.8 43.8 265.5 43.8 265.5C51.3 267.4 60.5 267.2 65.5 266.6H65.7C65.9 266.6 65.9 266.6 66 266.6C79.4 265.1 87.8 256.1 87.8 256.1Z" fill="#FCD56B"/>
<path d="M150.611 218.17C153.967 215.742 154.719 211.053 152.291 207.697C149.863 204.341 145.174 203.589 141.818 206.017C138.462 208.445 137.71 213.134 140.138 216.49C142.566 219.846 147.255 220.598 150.611 218.17Z" fill="#FCD56B"/>
<path d="M138.4 222.4L144.8 217.9C146.5 216.7 146.8 214.3 145.6 212.8C144.4 211.1 142 210.8 140.5 212L134.1 216.5C132.4 217.7 132.1 220.1 133.3 221.6C134.4 223.4 136.7 223.7 138.4 222.4Z" fill="#FCD56B"/>
<path d="M143.6 222.6L136.1 210.8L103.4 231.2L82.8 210.3C79.5 208.1 75.2 209.1 73.1 212.3C70.9 215.6 71.9 219.9 75.1 222L99.4 245.4C101.7 247 104.7 247 107 245.6L143.6 222.6Z" fill="#FCD56B"/>
<path opacity="0.44" d="M77.1 277.1L90.3 269.6L89.5 273L108.5 276.6L77.1 277.1Z" fill="#C8C8C8"/>
<path d="M367.6 90.2L366.5 87.1L365.4 90.2C364.5 92.8 362.3 95 359.3 96.4C362.3 97.6 364.4 100 365.4 102.6L366.5 105.7L367.6 102.6C368.5 100 370.7 97.8 373.7 96.4C370.7 95 368.5 92.8 367.6 90.2Z" fill="white"/>
<path d="M40.6 180.8L39.8 178.8L39 180.8C38.4 182.5 37 184.1 35 184.8C37 185.7 38.4 187.1 39 188.8L39.8 190.8L40.6 188.8C41.2 187.1 42.6 185.5 44.6 184.8C42.7 183.9 41.3 182.5 40.6 180.8Z" fill="white"/>
<path d="M155.6 343.4L158.2 348.6L188.9 349.4L195.1 332.4L192.5 327.4L155.6 343.4Z" fill="#B2BAD9"/>
<path d="M162.4 350.6L189 351.7C191.3 351.9 193.4 350.8 193.5 349.4L195.2 333.5C195.4 331.9 193.5 330.7 190.8 330.5L164.2 329.4C161.9 329.2 159.8 330.3 159.7 331.7L158 347.6C157.9 349.2 159.9 350.6 162.4 350.6Z" fill="#B2BAD9"/>
<path d="M159.8 345.6L186.4 346.7C188.7 346.9 190.8 345.8 190.9 344.4L192.6 328.5C192.8 326.9 190.9 325.7 188.2 325.5L161.6 324.4C159.3 324.2 157.2 325.3 157.1 326.7L155.4 342.6C155.4 344.2 157.3 345.6 159.8 345.6Z" fill="#CCD5E2"/>
<path d="M219.4 302.3H180.4C175.9 302.3 172.2 298.6 172.2 294.1C172.2 289.6 175.9 285.9 180.4 285.9H219.4C223.9 285.9 227.6 289.6 227.6 294.1C227.6 298.6 223.9 302.3 219.4 302.3Z" fill="white"/>
<path d="M244.2 101.5C249.944 101.5 254.6 96.8438 254.6 91.1C254.6 85.3562 249.944 80.7 244.2 80.7C238.456 80.7 233.8 85.3562 233.8 91.1C233.8 96.8438 238.456 101.5 244.2 101.5Z" fill="white"/>
<path d="M244.2 149.5C249.944 149.5 254.6 144.844 254.6 139.1C254.6 133.356 249.944 128.7 244.2 128.7C238.456 128.7 233.8 133.356 233.8 139.1C233.8 144.844 238.456 149.5 244.2 149.5Z" fill="white"/>
<path d="M216.5 212.3C222.244 212.3 226.9 207.644 226.9 201.9C226.9 196.156 222.244 191.5 216.5 191.5C210.756 191.5 206.1 196.156 206.1 201.9C206.1 207.644 210.756 212.3 216.5 212.3Z" fill="white"/>
</svg>
